<svg width="172" height="58" viewBox="0 0 172 58" fill="none" xmlns="http://www.w3.org/2000/svg">
<g clip-path="url(#clip0_6202_26268)">
<path fill-rule="evenodd" clip-rule="evenodd" d="M28.6313 12.1518C28.136 9.53954 28.6741 6.837 30.1324 4.6139C31.5681 2.51787 36.2679 0.979898 44.232 0C42.4667 1.12737 41.0513 2.72535 40.1451 4.6139C38.7069 7.53788 37.4573 11.0278 35.516 12.1518C34.2271 12.9378 32.2544 13.1264 29.598 12.8278C32.2964 9.26449 33.9573 7.14749 34.5808 6.47676C35.0995 5.94227 31.7907 8.11953 30.1089 10.0138C29.5761 10.6978 29.0828 11.4116 28.6313 12.1518Z" fill="#80BC00"/>
<path fill-rule="evenodd" clip-rule="evenodd" d="M25.9355 8.71692C26.1139 7.84934 26.1081 6.95398 25.9185 6.08879C25.729 5.22359 25.3599 4.40783 24.8352 3.69429C23.7978 2.27946 20.3659 1.25502 14.5396 0.620972C15.8084 1.34142 16.8467 2.40713 17.534 3.69429C18.5871 5.6436 19.4988 7.97021 20.9135 8.71692C21.8566 9.21997 23.2713 9.36931 25.2361 9.17281C23.2713 6.79904 22.0531 5.38684 21.5815 4.93619C21.2043 4.57462 23.6171 6.02875 24.8431 7.29423C25.2358 7.74581 25.6007 8.22092 25.9355 8.71692Z" fill="#80BC00"/>
<path fill-rule="evenodd" clip-rule="evenodd" d="M40.9153 23.5804C42.1111 25.9495 42.733 28.5666 42.7308 31.2205C42.7547 33.4052 42.3475 35.5732 41.5325 37.6004C40.7176 39.6275 39.5109 41.4741 37.9816 43.0343C36.4522 44.5945 34.6302 45.8377 32.6198 46.6928C30.6095 47.5479 28.4502 47.9981 26.2657 48.0176C21.8835 47.9227 17.7128 46.115 14.6472 42.9819C11.5815 39.8488 9.86481 35.6395 9.86481 31.2558C9.86481 26.8722 11.5815 22.6629 14.6472 19.5298C17.7128 16.3967 21.8835 14.589 26.2657 14.4941C28.8883 14.4881 31.4727 15.1221 33.7948 16.3412C30.3114 14.1254 26.2679 12.9501 22.1395 12.9535C9.90267 12.9535 0 23.0381 0 35.4807C0 47.9233 9.90267 58 22.116 58C28.0351 57.944 33.6898 55.5395 37.8369 51.3153C41.9841 47.091 44.2843 41.3926 44.2319 35.4728C44.2487 31.278 43.1005 27.161 40.9153 23.5804ZM15.357 31.4406C15.3493 33.6289 15.9507 35.7763 17.0939 37.6422C16.4675 36.4017 16.1417 35.0311 16.1429 33.6414C16.1662 31.9366 16.6929 30.2767 17.6569 28.8704C18.6208 27.4641 19.979 26.3743 21.5606 25.7379C23.1422 25.1016 24.8767 24.9471 26.5458 25.2939C28.215 25.6407 29.7444 26.4733 30.9416 27.6871C32.1389 28.9008 32.9507 30.4415 33.2748 32.1154C33.5989 33.7893 33.421 35.5217 32.7633 37.0947C32.1057 38.6677 30.9977 40.0112 29.5787 40.9561C28.1596 41.901 26.4929 42.4053 24.7881 42.4055C23.419 42.4082 22.07 42.0763 20.8585 41.4387C22.6679 42.5977 24.7692 43.2192 26.918 43.2308C29.2588 43.276 31.56 42.6232 33.5285 41.3555C35.4969 40.0878 37.0433 38.2627 37.9706 36.1127C38.898 33.9627 39.1642 31.5852 38.7354 29.2833C38.3066 26.9814 37.2021 24.8594 35.5629 23.1876C33.9236 21.5158 31.8237 20.3701 29.5309 19.8964C27.2381 19.4226 24.8562 19.6424 22.6887 20.5277C20.5213 21.413 18.6665 22.9237 17.3607 24.8672C16.055 26.8107 15.3574 29.0991 15.357 31.4406ZM28.8985 33.6886C28.883 32.8977 28.6344 32.129 28.1838 31.4789C27.7332 30.8288 27.1007 30.3263 26.3656 30.0343C25.6306 29.7423 24.8257 29.6739 24.0519 29.8376C23.2781 30.0014 22.5698 30.39 22.016 30.9547C21.4622 31.5194 21.0874 32.2351 20.9387 33.012C20.79 33.7889 20.874 34.5925 21.1802 35.3218C21.4863 36.0512 22.001 36.6739 22.6596 37.1119C23.3182 37.5498 24.0915 37.7835 24.8824 37.7837C25.4157 37.7786 25.9427 37.6683 26.4332 37.4592C26.9238 37.2502 27.3683 36.9464 27.7414 36.5653C28.1144 36.1841 28.4086 35.7332 28.6072 35.2382C28.8057 34.7433 28.9047 34.214 28.8985 33.6807V33.6886Z" fill="#F18A00"/>
<path d="M161.689 34.2781C161.844 33.4744 162.288 32.7552 162.936 32.2558C163.584 31.7564 164.393 31.5112 165.21 31.5663C165.999 31.5365 166.772 31.7955 167.384 32.2946C167.996 32.7938 168.405 33.499 168.534 34.2781H161.689ZM171.906 36.9662C171.987 36.4961 172.031 36.0205 172.039 35.5436C172.088 33.6719 171.393 31.8573 170.106 30.4974C169.492 29.8256 168.74 29.2949 167.902 28.9421C167.063 28.5893 166.158 28.4226 165.249 28.4537C164.302 28.4185 163.358 28.5822 162.478 28.9342C161.598 29.2862 160.802 29.8187 160.14 30.4974C159.488 31.1622 158.975 31.9515 158.633 32.8184C158.292 33.6853 158.128 34.6121 158.152 35.5436C158.124 36.483 158.289 37.4181 158.637 38.2914C158.984 39.1646 159.506 39.9575 160.172 40.6212C160.878 41.3034 161.717 41.8339 162.636 42.1799C163.555 42.526 164.535 42.6803 165.516 42.6334C166.649 42.6877 167.778 42.4529 168.795 41.951C169.812 41.4492 170.685 40.6967 171.332 39.7645L168.534 38.1453C168.179 38.5948 167.721 38.9517 167.198 39.1858C166.675 39.4198 166.104 39.524 165.532 39.4894C163.465 39.4894 162.199 38.6562 161.744 36.9662H171.906ZM150.78 28.4537C150.007 28.3903 149.231 28.5303 148.53 28.8599C147.828 29.1895 147.224 29.6971 146.78 30.3323V28.831H143.314V42.2561H146.78V35.0091C146.78 32.7768 147.935 31.6764 149.735 31.6764C150.1 31.6483 150.468 31.7016 150.81 31.8323C151.153 31.9631 151.462 32.1681 151.716 32.4326C151.97 32.6971 152.162 33.0145 152.279 33.3622C152.396 33.7098 152.434 34.079 152.391 34.4431V42.2561H155.857V34.0108C155.9 33.2682 155.793 32.5245 155.543 31.8239C155.293 31.1232 154.906 30.4797 154.403 29.9314C153.94 29.4401 153.377 29.0539 152.752 28.799C152.127 28.5441 151.454 28.4263 150.78 28.4537ZM140.139 42.2561V28.831H136.68V42.2561H140.139ZM138.394 27.2197C138.959 27.2197 139.503 26.9971 139.905 26.6C140.308 26.2029 140.539 25.6632 140.547 25.0974C140.547 24.5304 140.322 23.9866 139.921 23.5857C139.52 23.1847 138.976 22.9595 138.409 22.9595C137.843 22.9595 137.299 23.1847 136.898 23.5857C136.497 23.9866 136.272 24.5304 136.272 25.0974C136.278 25.6584 136.503 26.1946 136.9 26.5913C137.297 26.988 137.833 27.2135 138.394 27.2197ZM130.535 28.7917H127.069V42.2561H130.535V35.8422C130.485 35.313 130.573 34.7799 130.79 34.295C131.008 33.8101 131.348 33.3899 131.776 33.0755C132.609 32.508 133.626 32.2776 134.621 32.4309V28.5559C133.755 28.5021 132.893 28.723 132.159 29.1873C131.426 29.6516 130.857 30.3356 130.535 31.1419V28.7917ZM114.337 34.2388C114.501 33.4366 114.953 32.7222 115.607 32.23C116.261 31.7378 117.073 31.5017 117.889 31.5663C118.679 31.5346 119.454 31.7926 120.068 32.292C120.682 32.7913 121.092 33.4976 121.221 34.2781L114.337 34.2388ZM124.554 36.9269C124.635 36.4568 124.679 35.9812 124.687 35.5043C124.736 33.6326 124.041 31.818 122.754 30.4581C122.136 29.7924 121.381 29.2685 120.541 28.9225C119.701 28.5765 118.796 28.4165 117.889 28.4537C116.943 28.4177 116 28.581 115.121 28.9331C114.243 29.2851 113.448 29.8181 112.788 30.4974C112.137 31.1624 111.626 31.9521 111.287 32.8192C110.948 33.6863 110.788 34.613 110.816 35.5436C110.786 36.4825 110.95 37.4174 111.296 38.2907C111.642 39.164 112.163 39.9571 112.828 40.6212C113.535 41.3027 114.373 41.8326 115.292 42.1786C116.211 42.5246 117.191 42.6794 118.172 42.6334C119.312 42.6961 120.449 42.4652 121.474 41.9629C122.499 41.4606 123.378 40.7036 124.027 39.7645L121.237 38.1453C120.88 38.5949 120.42 38.9518 119.896 39.1858C119.372 39.4198 118.8 39.5239 118.227 39.4894C116.16 39.4894 114.895 38.6562 114.439 36.9662L124.554 36.9269ZM104.968 35.3706C104.968 36.3671 104.573 37.3227 103.868 38.0273C103.163 38.7319 102.208 39.1278 101.212 39.1278C100.215 39.1278 99.2597 38.7319 98.5552 38.0273C97.8507 37.3227 97.4549 36.3671 97.4549 35.3706C97.4382 34.8869 97.5225 34.405 97.7025 33.9557C97.8825 33.5064 98.1541 33.0995 98.5002 32.7611C98.8588 32.4137 99.2837 32.142 99.7495 31.9624C100.215 31.7828 100.713 31.6989 101.212 31.7157C101.707 31.6966 102.202 31.7796 102.664 31.9594C103.126 32.1392 103.547 32.4121 103.899 32.7611C104.253 33.0947 104.532 33.5001 104.716 33.9502C104.9 34.4003 104.986 34.8846 104.968 35.3706ZM104.968 30.5367C104.478 29.8671 103.83 29.3298 103.081 28.9731C102.332 28.6164 101.506 28.4514 100.677 28.493C99.7939 28.4783 98.9175 28.6499 98.105 28.9966C97.2925 29.3433 96.5622 29.8573 95.9616 30.5052C95.325 31.1436 94.8225 31.903 94.4837 32.7386C94.1449 33.5741 93.9767 34.4691 93.9889 35.3706C93.9663 37.1719 94.6456 38.9113 95.883 40.2203C96.4997 40.8651 97.2436 41.3748 98.0675 41.7171C98.8914 42.0594 99.7773 42.2269 100.669 42.209C101.498 42.2492 102.323 42.0836 103.072 41.727C103.821 41.3704 104.47 40.8338 104.96 40.1653V41.6116C104.96 43.7338 103.624 44.9207 101.447 44.9207C100.741 44.9829 100.031 44.8376 99.4057 44.5025C98.7803 44.1674 98.2662 43.6572 97.9264 43.0343L94.9713 44.7321C96.1581 46.8779 98.4373 48.0098 101.337 48.0098C103.129 48.0638 104.882 47.4849 106.289 46.3748C106.981 45.7989 107.528 45.0687 107.887 44.2428C108.246 43.417 108.407 42.5185 108.356 41.6195V28.831H104.968V30.5367ZM86.6484 28.493C85.8756 28.4296 85.0998 28.5697 84.3979 28.8992C83.6961 29.2288 83.0928 29.7364 82.648 30.3716V28.831H79.1821V42.2561H82.648V35.0091C82.648 32.7768 83.8033 31.6764 85.6031 31.6764C85.9687 31.6483 86.336 31.7016 86.6785 31.8323C87.0211 31.9631 87.3304 32.1681 87.5844 32.4326C87.8384 32.6971 88.0306 33.0145 88.1473 33.3622C88.2641 33.7098 88.3024 34.079 88.2595 34.4431V42.2561H91.7255V34.0108C91.7691 33.2687 91.6636 32.5254 91.4152 31.8248C91.1668 31.1241 90.7806 30.4803 90.2794 29.9314C89.8139 29.4411 89.2493 29.0557 88.6232 28.8009C87.9971 28.5461 87.3239 28.4277 86.6484 28.4537V28.493ZM66.2143 38.3261C65.8671 37.9608 65.5959 37.5303 65.4164 37.0594C65.237 36.5884 65.1529 36.0866 65.169 35.5829C65.15 35.0836 65.2328 34.5856 65.4125 34.1194C65.5922 33.6531 65.865 33.2284 66.2143 32.8711C66.928 32.181 67.8819 31.7952 68.8747 31.7952C69.8674 31.7952 70.8213 32.181 71.535 32.8711C71.893 33.2235 72.1736 33.6466 72.359 34.1135C72.5444 34.5804 72.6305 35.0809 72.6117 35.5829C72.6204 36.0838 72.5281 36.5814 72.3404 37.0459C72.1527 37.5104 71.8735 37.9324 71.5193 38.2868C70.794 38.954 69.8444 39.3244 68.8589 39.3244C67.8734 39.3244 66.9239 38.954 66.1986 38.2868L66.2143 38.3261ZM72.6117 30.4659C72.0886 29.8169 71.4192 29.3011 70.6582 28.9609C69.8973 28.6207 69.0665 28.4658 68.2341 28.5087C67.3612 28.5048 66.4974 28.6872 65.7005 29.0437C64.9036 29.4002 64.1919 29.9225 63.6129 30.576C62.3831 31.9646 61.7041 33.7554 61.7041 35.6104C61.7041 37.4654 62.3831 39.2562 63.6129 40.6448C64.1918 41.2967 64.904 41.8166 65.7013 42.1692C66.4986 42.5218 67.3624 42.6989 68.2341 42.6884C69.0665 42.7314 69.8973 42.5764 70.6582 42.2362C71.4192 41.896 72.0886 41.3803 72.6117 40.7313V42.3033H76.0698V28.831H72.6117V30.4659ZM49.0732 23.4547V26.9996H54.1189V42.2561H57.8285V26.9996H62.8741V23.4547H49.0732Z" fill="#1E1147"/>
</g>
<defs>
<clipPath id="clip0_6202_26268">
<rect width="172" height="58" fill="white"/>
</clipPath>
</defs>
</svg>
