<svg width="14" height="15" viewBox="0 0 14 15" fill="none" xmlns="http://www.w3.org/2000/svg">
<path d="M14 7.75C14 11.332 11.293 14.2852 7.84766 14.7227V9.91016H9.73438L10.1172 7.75H7.84766V7.01172C7.84766 5.86328 8.28516 5.42578 9.43359 5.42578C9.78906 5.42578 10.0625 5.45312 10.2266 5.45312V3.53906C9.92578 3.42969 9.16016 3.34766 8.72266 3.34766C6.37109 3.34766 5.30469 4.46875 5.30469 6.84766V7.75H3.85547V9.91016H5.30469V14.5586C2.24219 13.793 0 11.0312 0 7.75C0 3.89453 3.11719 0.75 7 0.75C10.8555 0.75 14 3.89453 14 7.75Z" fill="#000164"/>
</svg>
