<svg width="13" height="13" viewBox="0 0 13 13" fill="none" xmlns="http://www.w3.org/2000/svg">
<path d="M11.375 0.625C11.8398 0.625 12.25 1.03516 12.25 1.52734V12C12.25 12.4922 11.8398 12.875 11.375 12.875H0.847656C0.382812 12.875 0 12.4922 0 12V1.52734C0 1.03516 0.382812 0.625 0.847656 0.625H11.375ZM3.69141 11.125V5.30078H1.88672V11.125H3.69141ZM2.78906 4.48047C3.36328 4.48047 3.82812 4.01562 3.82812 3.44141C3.82812 2.86719 3.36328 2.375 2.78906 2.375C2.1875 2.375 1.72266 2.86719 1.72266 3.44141C1.72266 4.01562 2.1875 4.48047 2.78906 4.48047ZM10.5 11.125V7.92578C10.5 6.36719 10.1445 5.13672 8.3125 5.13672C7.4375 5.13672 6.83594 5.62891 6.58984 6.09375H6.5625V5.30078H4.83984V11.125H6.64453V8.25391C6.64453 7.48828 6.78125 6.75 7.73828 6.75C8.66797 6.75 8.66797 7.625 8.66797 8.28125V11.125H10.5Z" fill="#000164"/>
</svg>
