<svg width="48" height="48" viewBox="0 0 48 48" fill="none" xmlns="http://www.w3.org/2000/svg">
<rect width="48" height="48" rx="8" fill="#FF9100"/>
<path d="M28.6328 15.7578L25.625 22.7891H30C30.5078 22.7891 30.9766 23.1016 31.1719 23.5703C31.3281 24.0781 31.2109 24.625 30.8203 24.9766L20.8203 33.7266C20.3516 34.0781 19.7266 34.1172 19.2578 33.7656C18.7891 33.4531 18.5938 32.8281 18.8281 32.2812L21.8359 25.25H17.5C16.9531 25.25 16.4844 24.9375 16.3281 24.4688C16.1328 23.9609 16.25 23.4141 16.6406 23.0625L26.6406 14.3125C27.1094 13.9609 27.7344 13.9219 28.2031 14.2734C28.6719 14.5859 28.8672 15.2109 28.6328 15.7578Z" fill="white"/>
</svg>
