<svg width="56" height="56" viewBox="0 0 56 56" fill="none" xmlns="http://www.w3.org/2000/svg">
<path d="M24.625 18.25C24.3906 18.25 24.25 18.4375 24.25 18.625V20.5H31.75V18.625C31.75 18.4375 31.5625 18.25 31.375 18.25H24.625ZM22 18.625C22 17.2188 23.1719 16 24.625 16H31.375C32.7812 16 34 17.2188 34 18.625V20.5H37C38.6406 20.5 40 21.8594 40 23.5V28H31H25H16V23.5C16 21.8594 17.3125 20.5 19 20.5H22V18.625ZM40 29.5V35.5C40 37.1875 38.6406 38.5 37 38.5H19C17.3125 38.5 16 37.1875 16 35.5V29.5H25V31C25 31.8438 25.6562 32.5 26.5 32.5H29.5C30.2969 32.5 31 31.8438 31 31V29.5H40Z" fill="#04344D"/>
</svg>
