<svg xmlns="http://www.w3.org/2000/svg" width="178" height="47" fill="none" viewBox="0 0 178 47">
  <rect width="178" height="47" fill="#FFFBEC" rx="8"/>
  <path fill="#FF9100" d="M45.293 16.8c1.536 0 2.811.539 3.824 1.616 1.024 1.077 1.536 2.405 1.536 3.984 0 1.568-.512 2.896-1.536 3.984C48.104 27.461 46.83 28 45.293 28h-4.4V16.8h4.4Zm0 9.44c1.056 0 1.915-.363 2.576-1.088.672-.725 1.008-1.643 1.008-2.752 0-1.12-.336-2.037-1.008-2.752-.66-.725-1.52-1.088-2.576-1.088h-2.56v7.68h2.56Zm10.702 1.968c-1.173 0-2.17-.405-2.992-1.216-.821-.81-1.232-1.808-1.232-2.992s.41-2.181 1.232-2.992c.821-.81 1.819-1.216 2.992-1.216 1.184 0 2.181.405 2.992 1.216.821.81 1.232 1.808 1.232 2.992s-.41 2.181-1.232 2.992c-.81.81-1.808 1.216-2.992 1.216Zm-1.776-2.4c.48.48 1.072.72 1.776.72s1.296-.24 1.776-.72.72-1.083.72-1.808c0-.725-.24-1.328-.72-1.808s-1.072-.72-1.776-.72-1.296.24-1.776.72-.72 1.083-.72 1.808c0 .725.24 1.328.72 1.808ZM70.685 20h1.824l-2.512 8H68.3l-1.664-5.392L64.957 28H63.26l-2.512-8h1.824l1.552 5.52 1.68-5.52h1.648l1.664 5.52L70.685 20Zm3.096 8V16.32h1.728V28h-1.728Zm7.51.208c-1.172 0-2.17-.405-2.991-1.216-.822-.81-1.232-1.808-1.232-2.992s.41-2.181 1.232-2.992c.821-.81 1.819-1.216 2.992-1.216 1.184 0 2.181.405 2.992 1.216.821.81 1.232 1.808 1.232 2.992s-.41 2.181-1.232 2.992c-.81.81-1.808 1.216-2.992 1.216Zm-1.775-2.4c.48.48 1.072.72 1.776.72s1.296-.24 1.776-.72.72-1.083.72-1.808c0-.725-.24-1.328-.72-1.808s-1.072-.72-1.776-.72-1.296.24-1.776.72-.72 1.083-.72 1.808c0 .725.24 1.328.72 1.808ZM93.414 20h1.728v8h-1.728v-1.152c-.65.907-1.584 1.36-2.8 1.36-1.098 0-2.037-.405-2.816-1.216-.778-.821-1.168-1.819-1.168-2.992 0-1.184.39-2.181 1.168-2.992.779-.81 1.718-1.216 2.816-1.216 1.216 0 2.15.448 2.8 1.344V20Zm-4.336 5.84c.48.48 1.083.72 1.808.72.726 0 1.328-.24 1.808-.72.48-.49.72-1.104.72-1.84s-.24-1.344-.72-1.824c-.48-.49-1.082-.736-1.808-.736-.725 0-1.328.245-1.808.736-.48.48-.72 1.088-.72 1.824s.24 1.35.72 1.84Zm14.414-9.04h1.728V28h-1.728v-1.152c-.65.907-1.584 1.36-2.8 1.36-1.098 0-2.037-.405-2.816-1.216-.778-.821-1.168-1.819-1.168-2.992 0-1.184.39-2.181 1.168-2.992.78-.81 1.718-1.216 2.816-1.216 1.216 0 2.15.448 2.8 1.344V16.8Zm-4.336 9.04c.48.48 1.083.72 1.808.72.726 0 1.328-.24 1.808-.72.48-.49.72-1.104.72-1.84s-.24-1.344-.72-1.824c-.48-.49-1.082-.736-1.808-.736-.725 0-1.328.245-1.808.736-.48.48-.72 1.088-.72 1.824s.24 1.35.72 1.84Zm37.906-6.027c-.687-.782-1.687-1.313-2.812-1.313a3.74 3.74 0 0 0-3.75 3.75v.031c0 .625-.406 1.188-1 1.407a2.968 2.968 0 0 0-2 2.812c0 1.656 1.344 3 3 3h11.406c1.438-.063 2.594-1.281 2.594-2.75a2.715 2.715 0 0 0-1.656-2.5c-.625-.281-1-.938-.875-1.625 0-.125.031-.25.031-.375 0-1.219-1.031-2.25-2.25-2.25-.344 0-.656.094-.938.219a1.549 1.549 0 0 1-1.75-.407ZM142 31h-11.5c-2.5 0-4.5-2-4.5-4.5 0-1.938 1.25-3.625 3-4.219v-.031c0-2.875 2.344-5.25 5.25-5.25 1.562 0 3 .719 3.969 1.844a3.552 3.552 0 0 1 1.531-.344 3.761 3.761 0 0 1 3.75 3.75c0 .219-.031.406-.062.625 1.5.656 2.562 2.156 2.562 3.875a4.25 4.25 0 0 1-4 4.25Zm-9.031-5.219a.684.684 0 0 1 0-1.031c.281-.313.75-.313 1.062 0l1.219 1.219V21.75A.74.74 0 0 1 136 21a.76.76 0 0 1 .75.75v4.219l1.219-1.219a.684.684 0 0 1 1.031 0 .685.685 0 0 1 0 1.031l-2.5 2.5a.684.684 0 0 1-1.031 0l-2.5-2.5Z"/>
</svg>
