<svg width="56" height="56" viewBox="0 0 56 56" fill="none" xmlns="http://www.w3.org/2000/svg">
<path d="M22 16H29.5V22C29.5 22.8438 30.1562 23.5 31 23.5H37V37C37 38.6875 35.6406 40 34 40H22C20.3125 40 19 38.6875 19 37V19C19 17.3594 20.3125 16 22 16ZM31 16L37 22H31V16ZM29.125 27.625C29.125 27.0156 28.6094 26.5 28 26.5C27.3438 26.5 26.875 27.0156 26.875 27.625V35.875C26.875 36.5312 27.3438 37 28 37C28.6094 37 29.125 36.5312 29.125 35.875V27.625ZM33.25 30.625C33.25 30.0156 32.7344 29.5 32.125 29.5C31.4688 29.5 31 30.0156 31 30.625V35.875C31 36.5312 31.4688 37 32.125 37C32.7344 37 33.25 36.5312 33.25 35.875V30.625ZM25 33.625C25 33.0156 24.4844 32.5 23.875 32.5C23.2188 32.5 22.75 33.0156 22.75 33.625V35.875C22.75 36.5312 23.2188 37 23.875 37C24.4844 37 25 36.5312 25 35.875V33.625Z" fill="#DC2247"/>
</svg>
