<svg width="48" height="48" viewBox="0 0 48 48" fill="none" xmlns="http://www.w3.org/2000/svg">
<rect width="48" height="48" rx="8" fill="#FF9100"/>
<path d="M24 15.875C19.5078 15.875 15.875 19.5469 15.875 24V25.5625C15.875 26.1094 15.4453 26.5 14.9375 26.5C14.3906 26.5 14 26.1094 14 25.5625V24C14 18.4922 18.4531 14 24 14C29.5078 14 34 18.4922 34 24V29.6641C34 31.5391 32.4375 33.1016 30.5234 33.1016L26.2266 33.0625C25.9141 33.6484 25.2891 34 24.625 34H23.375C22.3203 34 21.5 33.1797 21.5 32.125C21.5 31.1094 22.3203 30.25 23.375 30.25H24.625C25.2891 30.25 25.9141 30.6406 26.2266 31.1875L30.5625 31.2266C31.4219 31.2266 32.125 30.5234 32.125 29.6641V24C32.125 19.5469 28.4531 15.875 24 15.875ZM19.625 22.125H20.25C20.9141 22.125 21.5 22.7109 21.5 23.375V27.75C21.5 28.4531 20.9141 29 20.25 29H19.625C18.2188 29 17.125 27.9062 17.125 26.5V24.625C17.125 23.2578 18.2188 22.125 19.625 22.125ZM28.375 22.125C29.7422 22.125 30.875 23.2578 30.875 24.625V26.5C30.875 27.9062 29.7422 29 28.375 29H27.75C27.0469 29 26.5 28.4531 26.5 27.75V23.375C26.5 22.7109 27.0469 22.125 27.75 22.125H28.375Z" fill="white"/>
</svg>
