<svg xmlns="http://www.w3.org/2000/svg" width="15" height="15" fill="none" viewBox="0 0 15 15">
  <path fill="#FF9100" d="M8 3.906c1.969 0 3.594 1.625 3.594 3.594 0 2-1.625 3.594-3.594 3.594-2 0-3.594-1.594-3.594-3.594A3.594 3.594 0 0 1 8 3.906Zm0 5.938c1.281 0 2.313-1.031 2.313-2.344A2.307 2.307 0 0 0 8 5.187c-1.313 0-2.344 1.032-2.344 2.313A2.34 2.34 0 0 0 8 9.844Zm4.563-6.063a.84.84 0 0 0-.844-.844.84.84 0 0 0-.844.844.84.84 0 0 0 .844.844.84.84 0 0 0 .844-.844Zm2.374.844c.063 1.156.063 4.625 0 5.781-.062 1.125-.312 2.094-1.124 2.938-.813.812-1.813 1.062-2.938 1.125-1.156.062-4.625.062-5.781 0-1.125-.063-2.094-.313-2.938-1.125-.812-.844-1.062-1.813-1.125-2.938-.062-1.156-.062-4.625 0-5.781.063-1.125.313-2.125 1.125-2.938C3 .875 3.97.625 5.094.563 6.25.5 9.719.5 10.875.563 12 .625 13 .875 13.813 1.688c.812.813 1.062 1.813 1.124 2.938Zm-1.5 7c.376-.906.282-3.094.282-4.125 0-1 .094-3.188-.281-4.125-.25-.594-.72-1.094-1.313-1.313C11.187 1.688 9 1.782 8 1.782c-1.031 0-3.219-.095-4.125.28a2.41 2.41 0 0 0-1.344 1.313C2.156 4.313 2.25 6.5 2.25 7.5c0 1.031-.094 3.219.281 4.125a2.37 2.37 0 0 0 1.344 1.344c.906.375 3.094.281 4.125.281 1 0 3.188.094 4.125-.281.594-.25 1.094-.719 1.313-1.344Z"/>
</svg>
