<svg width="48" height="48" viewBox="0 0 48 48" fill="none" xmlns="http://www.w3.org/2000/svg">
<rect width="48" height="48" rx="8" fill="#FF9100"/>
<path d="M34 15.25C34 19.7031 30.6797 23.375 26.3828 23.9219C26.1094 21.8516 25.2109 19.9766 23.8438 18.4922C25.3281 15.8359 28.2188 14 31.5 14H32.75C33.4141 14 34 14.5859 34 15.25ZM14 17.75C14 17.0859 14.5469 16.5 15.25 16.5H16.5C21.3047 16.5 25.25 20.4453 25.25 25.25V26.5V32.75C25.25 33.4531 24.6641 34 24 34C23.2969 34 22.75 33.4531 22.75 32.75V26.5C17.9062 26.5 14 22.5938 14 17.75Z" fill="white"/>
</svg>
