<svg width="25" height="21" viewBox="0 0 25 21" fill="none" xmlns="http://www.w3.org/2000/svg">
<path d="M22.6562 10.9688L18.2422 15.3828C16.0156 17.5703 12.4609 17.5703 10.2734 15.3828C8.20312 13.2734 8.08594 9.95312 10 7.72656L10.1953 7.49219C10.5469 7.10156 11.1328 7.0625 11.5234 7.41406C11.9141 7.76562 11.9531 8.35156 11.6016 8.74219L11.4453 8.9375C10.1172 10.4219 10.1953 12.6484 11.6016 14.0547C13.0469 15.5 15.4297 15.5 16.9141 14.0547L21.3281 9.64062C22.7734 8.15625 22.7734 5.8125 21.3281 4.32812C19.9219 2.96094 17.6953 2.88281 16.2109 4.17188L15.9766 4.36719C15.5859 4.71875 15 4.67969 14.6484 4.28906C14.2969 3.89844 14.3359 3.3125 14.7266 2.96094L14.9609 2.76562C17.1875 0.8125 20.5469 0.929688 22.6562 3C24.8438 5.1875 24.8438 8.74219 22.6562 10.9688ZM2.30469 10.0703L6.75781 5.65625C8.94531 3.46875 12.5 3.46875 14.6875 5.65625C16.7969 7.72656 16.9141 11.0859 14.9609 13.3125L14.7266 13.5469C14.4141 13.9375 13.7891 14.0156 13.3984 13.6641C13.0078 13.3125 12.9688 12.7266 13.3203 12.3359L13.5547 12.1016C14.8438 10.6172 14.7656 8.39062 13.3594 6.98438C11.9141 5.5 9.53125 5.5 8.08594 6.98438L3.63281 11.3984C2.1875 12.8438 2.1875 15.2266 3.63281 16.7109C5.03906 18.0781 7.26562 18.1562 8.75 16.8672L8.98438 16.6719C9.375 16.3203 9.96094 16.3594 10.3125 16.75C10.6641 17.1406 10.625 17.7266 10.2344 18.0781L10 18.2734C7.77344 20.2266 4.41406 20.1094 2.30469 18.0391C0.117188 15.8516 0.117188 12.2578 2.30469 10.0703Z" fill="#FF9100"/>
</svg>
