<svg xmlns="http://www.w3.org/2000/svg" width="14" height="15" fill="none" viewBox="0 0 14 15">
  <path fill="#FF9100" d="M13 .5c.531 0 1 .469 1 1.031V13.5c0 .563-.469 1-1 1H.969a.98.98 0 0 1-.969-1V1.531C0 .97.438.5.969.5H13Zm-8.781 12V5.844H2.156V12.5H4.22ZM3.187 4.906c.657 0 1.188-.531 1.188-1.187S3.844 2.5 3.187 2.5A1.22 1.22 0 0 0 1.97 3.719c0 .656.531 1.187 1.218 1.187ZM12 12.5V8.844c0-1.781-.406-3.188-2.5-3.188-1 0-1.688.563-1.969 1.094H7.5v-.906H5.531V12.5h2.063V9.219c0-.875.156-1.719 1.25-1.719 1.062 0 1.062 1 1.062 1.75v3.25H12Z"/>
</svg>
