<svg width="48" height="48" viewBox="0 0 48 48" fill="none" xmlns="http://www.w3.org/2000/svg">
<rect width="48" height="48" rx="8" fill="#FF9100"/>
<path d="M18.4531 17.6719C18.375 17.75 18.2969 17.75 18.2188 17.75H17.0469C16.6953 17.75 16.4219 17.4766 16.5 17.1641C16.8516 15.7578 18.375 14 21.4219 14C23.6875 14 25.1328 15.0156 25.8359 16.1094C26.6172 15.6016 27.6719 15.25 29 15.25C32.0078 15.25 33.5312 17.0078 33.8828 18.4141C34 18.7266 33.6875 19 33.375 19H31.6172C31.5391 19 31.4609 19 31.3828 18.9219L30.4453 17.9844C30.3281 17.8672 30.1328 17.8672 30.0156 17.9844L29.0781 18.9219C29 19 28.9219 19 28.8438 19H26.4609C26.5781 19.625 26.7344 20.4062 26.8125 21.3438C27.0078 23.1406 26.9688 25.4453 26.3047 27.8672C28.5312 28.375 30.25 30.3672 30.25 32.75C30.25 33.4531 29.6641 34 29 34H16.5C15.7969 34 15.25 33.4531 15.25 32.75C15.25 30.0156 17.4766 27.75 20.25 27.75H21.1875C22.2031 25.5625 22.6719 23.4531 22.9062 21.8516C22.9453 21.4609 22.9844 21.1094 23.0234 20.7969L20.2109 23.6094C19.9766 23.8438 19.5469 23.8438 19.3906 23.5703C18.6484 22.3203 18.4922 20.0156 20.6406 17.8672C20.6797 17.7891 20.7578 17.75 20.7969 17.7109L20.7578 17.6719L19.8203 16.7344C19.7031 16.6172 19.5078 16.6172 19.3906 16.7344L18.4531 17.6719ZM23.2578 27.75H24.3516C25.0938 25.4453 25.1328 23.2578 24.9766 21.5391C24.9375 21.3047 24.8984 21.0703 24.8984 20.8359C24.8594 21.2266 24.8203 21.6562 24.7422 22.125C24.5469 23.6484 24.1172 25.6406 23.2578 27.7891V27.75ZM25.25 29.625H20.25C18.7266 29.625 17.4766 30.7188 17.1641 32.125H28.2969C28.0234 30.7188 26.7344 29.625 25.25 29.625Z" fill="white"/>
</svg>
