<svg width="41" height="32" viewBox="0 0 41 32" fill="none" xmlns="http://www.w3.org/2000/svg">
<path d="M12.3125 1.3125L14.1875 4.875L18.125 4.125C18.1875 4.125 18.25 4.125 18.3125 4.125C18.0625 4.375 17.875 4.625 17.6875 4.9375L15.875 7.625L13.625 8C13 8.125 12.375 7.8125 12.0625 7.25L11 5.25L9.875 7.25C9.5625 7.8125 8.9375 8.125 8.3125 8L6.0625 7.625L6.9375 9.6875C7.25 10.3125 7.0625 11 6.5625 11.4375L4.8125 12.9375L7.0625 13.5625C7.6875 13.6875 8.125 14.25 8.125 14.9375L8.25 17.1875L10.0625 15.875C10.1875 15.75 10.3125 15.6875 10.4375 15.625L9.25 20.1875L7.75 21.3125C7.3125 21.625 6.6875 21.6875 6.1875 21.4375C5.6875 21.1875 5.375 20.6875 5.375 20.125L5.1875 16.125L1.3125 15.0625C0.8125 14.9375 0.375 14.5 0.25 14C0.125 13.4375 0.3125 12.875 0.75 12.5L3.75 9.875L2.1875 6.1875C1.9375 5.6875 2 5.125 2.375 4.6875C2.75 4.25 3.25 4 3.8125 4.125L7.75 4.875L9.625 1.3125C9.9375 0.8125 10.4375 0.5 11 0.5C11.5 0.5 12.0625 0.8125 12.3125 1.3125ZM33.5 9.3125L24.9375 7C23.9375 6.75 22.8125 7.125 22.25 8L20.3125 10.875C20.375 10.875 20.4375 10.875 20.5 10.9375L35.375 14.875C35.4375 14.9375 35.5625 14.9375 35.625 15L35.375 11.5625C35.25 10.5 34.5 9.5625 33.5 9.3125ZM38.3125 11.3125L38.8125 17.3125C39.75 18.75 40.0625 20.5 39.625 22.25L38.875 25.125L38.4375 26.75L38.0625 28L37.3125 30.9375C37.125 31.625 36.4375 32 35.75 31.8125C35.0625 31.625 34.625 30.9375 34.8125 30.25L35.625 27.375L35.1875 27.25L14.5 21.6875L14.125 21.625L13.3125 24.5C13.125 25.1875 12.4375 25.5625 11.75 25.375C11.0625 25.1875 10.6875 24.5 10.875 23.8125L11.625 20.9375L12.4375 18.0625L13.1875 15.1875C13.625 13.4375 14.8125 12.0625 16.375 11.3125L19.75 6.3125C21.0625 4.375 23.4375 3.5 25.75 4.125L34.3125 6.375C36.5625 7 38.1875 9 38.375 11.3125H38.3125ZM34.625 17.8125L19.75 13.8125C18.125 13.375 16.5 14.3125 16.0625 15.9375L15.3125 18.8125L35.9375 24.3125L36.6875 21.4375C37.125 19.875 36.1875 18.25 34.625 17.8125ZM35.5 21.125C35.375 21.75 34.875 22.25 34.25 22.375C33.6875 22.5625 33.0625 22.375 32.625 21.9375C32.1875 21.5 32 20.8125 32.1875 20.25C32.3125 19.625 32.8125 19.125 33.375 19C34 18.8125 34.625 19 35.0625 19.4375C35.5 19.875 35.6875 20.5625 35.5 21.125ZM19.375 15.0625C20 15.1875 20.5 15.625 20.6875 16.25C20.8125 16.875 20.625 17.5 20.1875 17.9375C19.75 18.375 19.125 18.5625 18.5 18.375C17.875 18.1875 17.4375 17.75 17.25 17.125C17.0625 16.5625 17.25 15.875 17.6875 15.4375C18.125 15 18.8125 14.875 19.375 15.0625Z" fill="#527D0E"/>
</svg>
