<svg width="32" height="24" viewBox="0 0 32 24" fill="none" xmlns="http://www.w3.org/2000/svg">
<path d="M6.125 12.75C8.5 14.125 12 15 16 15C20 15 23.4375 14.125 25.8125 12.75C28.25 11.375 29 9.9375 29 9C29 8.125 28.25 6.6875 25.8125 5.25C23.4375 3.9375 20 3 16 3C12 3 8.5 3.9375 6.125 5.25C3.6875 6.6875 3 8.125 3 9C3 9.9375 3.6875 11.375 6.125 12.75ZM16 0C24.8125 0 32 4.0625 32 9V12V16C32 20.4375 24.8125 24 16 24C7.125 24 0 20.4375 0 16V12V9C0 4.0625 7.125 0 16 0ZM13.5 17.9375V20.9375C14.25 21 15.125 21 16 21C16.8125 21 17.6875 21 18.5 20.9375V17.9375C17.6875 18 16.8125 18 16 18C15.125 18 14.3125 18 13.5 17.9375ZM11.5 17.6875C10.0625 17.4375 8.6875 17.125 7.5 16.6875V19.625C8.625 20.0625 10 20.4375 11.5 20.6875V17.6875ZM3 14.25V16C3 16.4375 3.375 17.5625 5.5 18.75V15.8125C4.5625 15.375 3.6875 14.875 3 14.25ZM20.5 20.6875C21.9375 20.4375 23.3125 20.0625 24.5 19.625V16.625C23.25 17.0625 21.875 17.4375 20.5 17.6875V20.6875ZM26.5 18.75V18.6875C28.5625 17.5625 29 16.4375 29 16V14.25C28.25 14.8125 27.4375 15.375 26.5 15.8125V18.75ZM16 7.5C13.4375 7.5 11.25 7.875 9.6875 8.3125C8.9375 8.5625 8.4375 8.8125 8.1875 9C8.4375 9.25 8.9375 9.5 9.6875 9.75C11.25 10.1875 13.4375 10.5 16 10.5C18.5 10.5 20.6875 10.1875 22.25 9.75C23 9.5 23.5 9.25 23.8125 9C23.5 8.8125 23 8.5625 22.25 8.3125C20.6875 7.875 18.5 7.5 16 7.5ZM27 9C27 10.125 26.25 10.9375 25.625 11.375C24.9375 11.875 24.0625 12.25 23.125 12.5625C21.25 13.1875 18.6875 13.5 16 13.5C13.25 13.5 10.6875 13.1875 8.8125 12.5625C7.875 12.3125 7 11.875 6.3125 11.375C5.6875 10.9375 5 10.125 5 9C5 7.9375 5.6875 7.125 6.3125 6.6875C7 6.1875 7.875 5.75 8.8125 5.5C10.6875 4.875 13.25 4.5 16 4.5C18.6875 4.5 21.25 4.875 23.125 5.5C24.0625 5.75 24.9375 6.1875 25.625 6.6875C26.25 7.125 27 7.9375 27 9Z" fill="#527D0E"/>
</svg>
