<svg xmlns="http://www.w3.org/2000/svg" width="14" height="13" fill="none" viewBox="0 0 14 13">
  <path fill="#7CBB0E" d="M7.125 3.605A3.163 3.163 0 0 1 10.27 6.75a3.145 3.145 0 0 1-3.145 3.145A3.128 3.128 0 0 1 3.98 6.75a3.145 3.145 0 0 1 3.145-3.145Zm0 5.196c1.121 0 2.023-.903 2.023-2.051a2.019 2.019 0 0 0-2.023-2.023c-1.148 0-2.05.902-2.05 2.023 0 1.148.929 2.05 2.05 2.05Zm3.992-5.305a.735.735 0 0 0-.738-.738.735.735 0 0 0-.738.738c0 .41.328.738.738.738s.738-.328.738-.738Zm2.078.738c.055 1.012.055 4.047 0 5.059-.054.984-.273 1.832-.984 2.57-.711.711-1.586.93-2.57.985-1.012.054-4.047.054-5.059 0-.984-.055-1.832-.274-2.57-.985-.711-.738-.93-1.586-.985-2.57-.054-1.012-.054-4.047 0-5.059.055-.984.274-1.859.985-2.57.738-.71 1.586-.93 2.57-.984C5.594.625 8.629.625 9.641.68c.984.054 1.859.273 2.57.984.71.711.93 1.586.984 2.57Zm-1.312 6.125c.328-.793.246-2.707.246-3.609 0-.875.082-2.79-.246-3.61-.219-.519-.63-.956-1.149-1.148-.82-.328-2.734-.246-3.609-.246-.902 0-2.816-.082-3.61.246A2.11 2.11 0 0 0 2.34 3.141c-.328.82-.246 2.734-.246 3.609 0 .902-.082 2.816.246 3.61.219.546.629.956 1.176 1.175.793.328 2.707.246 3.609.246.875 0 2.79.082 3.61-.246.519-.219.956-.629 1.148-1.176Z"/>
</svg>
