<svg width="48" height="48" viewBox="0 0 48 48" fill="none" xmlns="http://www.w3.org/2000/svg">
<rect width="48" height="48" rx="24" fill="#7CBB0E"/>
<path d="M24.1172 17.3594C24.7812 16.8125 25.6016 16.5 26.4609 16.5C27.1641 16.5 27.8672 16.7344 28.4531 17.0859L31.3047 18.9219L31.4609 19H31.5H31.6562H34.625C35.6406 19 36.5 19.8594 36.5 20.875V25.875C36.5 26.9297 35.6406 27.75 34.625 27.75H32.9844L26.0703 21.3828L26.8516 20.7578C27.125 20.5625 27.2031 20.1719 26.9688 19.8984C26.7734 19.625 26.3828 19.5469 26.1094 19.7812L22.2031 22.7891C21.5391 23.2969 20.5625 23.1797 20.0547 22.4766C19.5859 21.8125 19.7031 20.9141 20.3281 20.4062L24.1172 17.3594ZM25.0156 22.2031L30.25 27.0078C30.9922 27.7109 31.0703 28.8828 30.3672 29.6641C29.7422 30.3672 28.6875 30.4453 27.9453 29.9375C27.8672 30.1719 27.7109 30.4062 27.5547 30.6016C26.8516 31.3438 25.6797 31.4219 24.8984 30.7188L24.2344 30.0938C24.1562 30.4062 24 30.6797 23.8047 30.9141C23.1016 31.6562 21.9297 31.7344 21.1484 31.0312L17.5938 27.75H13.375C12.3203 27.75 11.5 26.9297 11.5 25.875V20.875C11.5 19.8594 12.3203 19 13.375 19H16.5L19.3125 17.125C19.8984 16.7344 20.6406 16.5 21.3438 16.5391C21.8516 16.5391 22.3594 16.6172 22.7891 16.8125L19.5469 19.4297C18.4141 20.3672 18.1797 22.0469 19.0391 23.2188C19.9766 24.4688 21.7734 24.7422 22.9844 23.7656L25.0156 22.2031Z" fill="white"/>
</svg>
