<svg width="32" height="32" viewBox="0 0 32 32" fill="none" xmlns="http://www.w3.org/2000/svg">
<path d="M24.0625 26.25L19 21.1875C18.125 21.75 17.0625 22 16 22C14.875 22 13.8125 21.75 12.9375 21.1875L7.875 26.25C10.125 28 12.9375 29 16 29C19 29 21.8125 28 24.0625 26.25ZM28.3125 26.25L29 27C29.625 27.5625 29.625 28.5 29 29.0625C28.4375 29.6875 27.5 29.6875 26.9375 29.0625L26.1875 28.375C23.375 30.625 19.875 32 16 32C12.0625 32 8.5625 30.625 5.75 28.375L5 29.0625C4.4375 29.6875 3.5 29.6875 2.9375 29.0625C2.3125 28.5 2.3125 27.5625 2.9375 26.9375L3.625 26.25C1.375 23.4375 0 19.9375 0 16C0 12.125 1.375 8.625 3.625 5.8125L2.9375 5.0625C2.3125 4.5 2.3125 3.5625 2.9375 2.9375C3.5 2.375 4.4375 2.375 5.0625 2.9375L5.75 3.6875C8.5625 1.4375 12.0625 0 16 0C19.875 0 23.375 1.4375 26.1875 3.6875L26.9375 3C27.5 2.375 28.4375 2.375 29.0625 3C29.625 3.5625 29.625 4.5 29.0625 5.0625L28.3125 5.8125C30.5625 8.625 32 12.125 32 16C32 19.9375 30.5625 23.4375 28.3125 26.25ZM26.1875 24.125C27.9375 21.875 29 19.0625 29 16C29 13 27.9375 10.1875 26.1875 7.9375L21.125 13C21.6875 13.875 22 14.9375 22 16C22 17.125 21.6875 18.1875 21.125 19.0625L26.1875 24.125ZM24.0625 5.8125C21.8125 4.0625 19 3 16 3C12.9375 3 10.125 4.0625 7.875 5.8125L12.9375 10.875C13.8125 10.3125 14.875 10 15.9375 10C17.0625 10 18.125 10.3125 19 10.875L24.0625 5.8125ZM10.8125 19.0625C10.25 18.1875 10 17.125 10 16.0625C10 14.9375 10.25 13.875 10.8125 13L5.75 7.9375C4 10.1875 3 13 3 16C3 19.0625 4 21.875 5.75 24.125L10.8125 19.0625ZM13 16C13 17.125 13.5625 18.0625 14.5 18.625C15.375 19.1875 16.5625 19.1875 17.5 18.625C18.375 18.0625 19 17.125 19 16C19 14.9375 18.375 14 17.5 13.4375C16.5625 12.875 15.375 12.875 14.5 13.4375C13.5625 14 13 14.9375 13 16Z" fill="#527D0E"/>
</svg>
