<svg xmlns="http://www.w3.org/2000/svg" width="13" height="13" fill="none" viewBox="0 0 13 13">
  <path fill="#7CBB0E" d="M11.375.625c.465 0 .875.41.875.902V12c0 .492-.41.875-.875.875H.848A.858.858 0 0 1 0 12V1.527C0 1.035.383.625.848.625h10.527Zm-7.684 10.5V5.301H1.887v5.824H3.69ZM2.79 4.48c.574 0 1.04-.464 1.04-1.039 0-.574-.466-1.066-1.04-1.066-.602 0-1.066.492-1.066 1.066 0 .575.464 1.04 1.066 1.04Zm7.711 6.645v-3.2c0-1.558-.355-2.788-2.188-2.788-.874 0-1.476.492-1.722.957h-.027V5.3H4.84v5.824h1.805v-2.87c0-.766.136-1.504 1.093-1.504.93 0 .93.875.93 1.531v2.844H10.5Z"/>
</svg>
