<svg width="48" height="48" viewBox="0 0 48 48" fill="none" xmlns="http://www.w3.org/2000/svg">
<rect width="48" height="48" rx="8" fill="#FF9100"/>
<path d="M22.9062 32.3594L15.8359 25.7578C15.6797 25.6016 15.5234 25.4453 15.3672 25.25H18.7656C19.6641 25.25 20.4453 24.7422 20.7969 23.9219L21.1875 22.9453L23.1406 27.2031C23.2969 27.5547 23.6094 27.75 23.9609 27.75C24.3125 27.75 24.6641 27.5547 24.8203 27.2422L26.5 23.9219L26.5391 24.0781C26.9297 24.8203 27.6719 25.2891 28.4922 25.2891H32.5938C32.4375 25.4453 32.2812 25.6016 32.125 25.7578L25.0547 32.3594C24.7812 32.6328 24.3906 32.75 24 32.75C23.5703 32.75 23.1797 32.6328 22.9062 32.3594ZM33.6484 23.375H28.4922C28.375 23.375 28.2578 23.3359 28.2188 23.2188L27.3203 21.4219C27.1641 21.1094 26.8125 20.875 26.4609 20.875C26.1094 20.875 25.7969 21.1094 25.6406 21.4219L24 24.6641L22.0078 20.2109C21.8906 19.8594 21.5391 19.625 21.1484 19.6641C20.7969 19.6641 20.4453 19.8594 20.2891 20.2109L19.0781 23.2188C19 23.3359 18.8828 23.4141 18.7656 23.4141H14.625C14.5078 23.4141 14.4297 23.4141 14.3125 23.4531C14.1172 22.8281 14 22.1641 14 21.4609V21.2656C14 18.5312 15.9531 16.1875 18.6484 15.7578C20.4453 15.4453 22.2422 16.0312 23.5312 17.2812L24 17.75L24.4688 17.2812C25.7188 16.0312 27.5547 15.4453 29.3125 15.7578C32.0078 16.1875 34 18.5312 34 21.2656V21.4609C34 22.125 33.8828 22.7891 33.6484 23.375Z" fill="white"/>
</svg>
