<svg width="48" height="48" viewBox="0 0 48 48" fill="none" xmlns="http://www.w3.org/2000/svg">
<rect width="48" height="48" rx="8" fill="#FF9100"/>
<path d="M28.3359 30.1328L26.0703 27.8672C25.4453 28.2188 24.7422 28.375 24 28.375C23.2188 28.375 22.5156 28.2188 21.8906 27.8672L19.625 30.1328C20.875 30.9922 22.3594 31.5 24 31.5C25.6016 31.5 27.0859 30.9922 28.3359 30.1328ZM31.8516 30.1719H31.8906C32.2422 30.6406 32.1641 31.3438 31.7344 31.7734C31.3047 32.2031 30.6016 32.2422 30.1328 31.8906C28.4141 33.2188 26.3047 34 24 34C21.6562 34 19.5469 33.2188 17.8281 31.8906C17.3594 32.2422 16.6562 32.2031 16.2266 31.7734C15.7969 31.3438 15.7578 30.6406 16.1094 30.1719C14.7812 28.4531 14 26.3438 14 24C14 21.6953 14.7812 19.5859 16.1094 17.8672C15.7578 17.3984 15.7969 16.6953 16.2266 16.2656C16.6562 15.8359 17.3594 15.7578 17.8281 16.1094C19.5469 14.8203 21.6562 14 24 14C26.3047 14 28.4141 14.8203 30.1328 16.1094C30.6016 15.7578 31.3047 15.8359 31.7344 16.2656C32.1641 16.6953 32.2031 17.3984 31.8516 17.8672C33.1797 19.5859 33.9609 21.6953 33.9609 24C33.9609 26.3438 33.1797 28.4531 31.8516 30.1719ZM30.0938 28.375C30.9531 27.125 31.5 25.6406 31.5 24C31.5 22.3984 30.9531 20.9141 30.0938 19.6641L27.8281 21.9297C28.1797 22.5547 28.3359 23.2578 28.3359 24C28.3359 24.7812 28.1797 25.4844 27.8281 26.1094L30.0938 28.375ZM28.3359 17.9062C27.0859 17.0469 25.6016 16.5 24 16.5C22.3594 16.5 20.875 17.0469 19.625 17.9062L21.8906 20.1719C22.5156 19.8203 23.2188 19.625 23.9609 19.625C24.7422 19.625 25.4453 19.8203 26.0703 20.1719L28.3359 17.9062ZM20.1328 26.1094C19.7812 25.4844 19.625 24.7812 19.625 24.0391C19.625 23.2578 19.7812 22.5547 20.1328 21.9297L17.8672 19.6641C17.0078 20.9141 16.5 22.3984 16.5 24C16.5 25.6406 17.0078 27.125 17.8672 28.375L20.1328 26.1094ZM22.125 24C22.125 24.7031 22.4766 25.2891 23.0625 25.6406C23.6094 25.9922 24.3516 25.9922 24.9375 25.6406C25.4844 25.2891 25.875 24.7031 25.875 24C25.875 23.3359 25.4844 22.75 24.9375 22.3984C24.3516 22.0469 23.6094 22.0469 23.0625 22.3984C22.4766 22.75 22.125 23.3359 22.125 24Z" fill="white"/>
</svg>
