<svg width="1196" height="453" viewBox="0 0 1196 453" fill="none" xmlns="http://www.w3.org/2000/svg">
<path d="M548.005 334.177C549.602 329.514 552.082 323.444 556.227 316.946C558.283 313.689 560.746 310.328 563.584 306.951C566.472 303.607 569.734 300.264 573.386 297.024C580.742 290.594 589.696 284.662 599.889 279.93C610.082 275.215 621.516 271.683 633.646 269.917C658.229 266.317 684.018 271.289 707.123 279.673C730.313 288.125 750.989 299.818 768.589 310.448C788.959 322.827 808.496 335.978 828.764 347.516C848.981 359.038 869.996 368.999 892.082 374.468C903.108 377.177 914.337 378.858 925.669 379.081C936.984 379.355 948.349 378.395 959.528 376.372C981.902 372.222 1003.5 363.718 1023.36 352.197C1043.2 340.624 1061.51 326.205 1077.6 309.608C1085.65 301.327 1093.2 292.514 1100.16 283.273C1101.91 280.976 1103.56 278.593 1105.26 276.261L1110.1 269.008C1111.68 266.557 1113.4 264.225 1114.86 261.687L1119.38 254.212L1121.64 250.474L1123.74 246.634L1127.96 238.97C1130.69 233.826 1133.24 228.546 1135.86 223.334C1138.25 218.001 1140.8 212.738 1143.08 207.337C1145.3 201.919 1147.7 196.57 1149.74 191.066C1158.26 169.206 1165.45 146.78 1171.89 124.097C1180.03 95.7734 1191.34 46.7039 1194.88 48.5727C1196.69 49.55 1196.29 58.3798 1193.81 73.2618C1191.31 88.1267 1186.86 109.095 1179.7 134.076C1175.36 149.181 1170.68 164.234 1165.33 179.065C1160.01 193.912 1154.24 208.623 1147.53 222.956C1140.85 237.29 1133.61 251.4 1125.2 264.825C1124.17 266.505 1123.2 268.237 1122.1 269.883L1118.8 274.821C1116.57 278.095 1114.5 281.456 1112.12 284.645C1107.52 291.126 1102.59 297.349 1097.44 303.384C1076.84 327.456 1052.27 348.151 1024.66 363.564C997.107 378.926 966.188 388.905 934.435 389.968C922.866 390.362 911.211 389.625 899.778 387.516C888.344 385.476 877.182 382.235 866.395 378.172C844.768 370.028 824.704 358.729 805.336 346.882C785.935 335.017 767.196 322.45 747.71 311.511C728.274 300.556 708.058 290.989 686.838 285.399C676.254 282.605 665.432 280.856 654.576 280.427C643.822 279.913 633.051 281.233 622.62 283.993C612.206 286.771 602.165 291.074 593.059 296.784C583.97 302.493 575.782 309.677 569.411 318.181C563.023 326.651 558.521 336.475 556.635 346.83C554.664 357.186 555.531 367.97 558.47 378.172C558.776 379.475 559.251 380.709 559.693 381.961L561.052 385.716L562.7 389.368L563.516 391.185L564.467 392.951L566.387 396.466C567.066 397.614 567.831 398.712 568.544 399.843C569.92 402.141 571.619 404.215 573.216 406.376C579.842 414.811 588.082 421.926 597.154 427.464C599.209 428.699 601.35 429.745 603.44 430.893C605.648 431.853 607.806 432.916 610.048 433.791C614.533 435.522 619.12 437.066 623.826 438.129C633.221 440.392 642.922 441.386 652.657 441.266C662.391 441.095 672.126 439.86 681.674 437.7C686.448 436.654 691.17 435.282 695.825 433.774C698.17 433.036 700.446 432.128 702.757 431.322C705.017 430.379 707.259 429.367 709.519 428.39C727.493 420.52 744.04 409.325 758.379 395.746C772.768 382.184 784.746 366.084 794.107 348.613C803.433 331.125 810.008 312.146 813.219 292.6C816.43 273.072 816.26 252.995 812.251 233.586C804.334 194.735 783.03 158.868 753.486 132.738C739.589 120.48 723.823 110.381 706.834 103.249L693.889 98.4481L687.229 96.5621L683.899 95.6191C682.795 95.2934 681.674 94.9847 680.535 94.779C671.531 92.773 662.408 91.1442 653.183 90.4241C634.733 88.7782 616.062 89.584 597.561 92.0701C579.06 94.5561 560.746 98.8081 542.653 103.935C506.45 114.187 471.368 128.744 435.453 141.791C417.496 148.323 399.318 154.53 380.766 159.691C362.214 164.869 343.254 169.001 323.938 171.161C307.305 173.047 290.418 173.698 273.514 172.104C256.661 170.544 239.791 166.703 224.009 159.759C208.226 152.884 193.734 142.323 182.471 129.001C171.156 115.73 163.103 99.1853 160.742 81.4572C159.519 72.5245 160.079 63.4205 162.05 54.745C164.021 46.0524 167.435 37.6855 172.175 30.1245C176.881 22.5463 183.065 15.8083 190.455 10.6133L193.259 8.71015C194.193 8.07578 195.212 7.59572 196.198 7.02993C197.2 6.49843 198.168 5.93264 199.188 5.41828L202.314 4.08095C206.476 2.28071 211.012 1.18342 215.497 0.514755C224.535 -0.771134 233.675 0.42903 242.153 3.25799C250.63 6.13838 258.547 10.7847 265.088 17.0942C271.629 23.3864 276.572 31.6504 278.781 40.7202C281.125 49.6529 280.65 59.2027 277.999 67.9468C275.536 76.2279 270.915 84.029 265.173 90.887C259.43 97.7965 252.499 103.78 245.058 109.009C237.617 114.256 229.564 118.662 221.324 122.4C217.196 124.269 213 125.915 208.769 127.389C204.522 128.915 200.309 130.064 196.198 131.247C182.522 135.156 164.004 139.408 145.265 141.997C126.526 144.689 107.634 145.717 93.5674 145.614C92.0554 145.614 90.5264 145.614 88.9974 145.614C87.4684 145.563 85.9394 145.529 84.3934 145.477C81.3184 145.374 78.2435 145.272 75.1685 145.186C69.0354 144.809 62.9194 144.569 56.9903 144.054C50.1777 143.643 44.0107 142.837 38.4723 142.22C32.9339 141.431 28.0241 140.677 23.7089 139.888C19.4107 139.031 15.7241 138.242 12.6152 137.522C9.52316 136.733 7.0088 135.979 5.07206 135.345C-2.70888 132.756 -1.36676 131.573 7.92619 131.367C9.96486 131.315 9.93088 130.732 11.0012 130.441C11.5278 130.287 12.3263 130.218 13.8043 130.304C15.2824 130.355 17.423 130.544 20.6339 130.972C21.1606 131.041 22.2309 131.178 22.7066 131.247C42.2099 133.459 61.9341 135.036 81.8621 135.413C101.773 135.773 121.939 135.053 141.918 132.173C154.201 130.544 166.348 128.058 178.393 125.229L187.397 122.949C190.387 122.16 193.344 121.234 196.334 120.394C202.348 118.748 207.988 116.759 213.645 114.445C224.875 109.781 235.646 103.849 245.092 96.4078C254.521 89.0182 262.692 79.897 267.109 69.2841C268.214 66.6437 268.995 63.9005 269.607 61.1401C270.083 58.3626 270.473 55.5508 270.388 52.7219C270.422 51.3159 270.252 49.8929 270.168 48.487C269.93 47.0982 269.862 45.6237 269.454 44.3207C269.08 42.9834 268.859 41.5946 268.384 40.2916L266.855 36.3996C261.996 26.284 252.703 18.4143 242.102 14.0766C231.433 9.91032 219.337 9.01877 208.736 12.7736C198.049 16.6312 188.706 24.2951 182.267 34.0679C175.862 43.8235 171.785 55.3622 171.105 67.1067C170.29 78.7825 172.838 90.6984 177.867 101.466C180.364 106.866 183.439 112.01 186.973 116.828C190.557 121.611 194.601 126.069 198.984 130.15C207.75 138.379 218.011 144.792 229.071 149.592C240.114 154.444 251.955 157.496 263.967 159.382C276.012 161.234 288.278 161.748 300.544 161.371C312.827 160.857 325.093 159.605 337.274 157.65C349.438 155.559 361.534 152.901 373.528 149.712C402.936 141.791 431.698 131.058 460.529 120.274C474.952 114.873 489.393 109.438 504.054 104.38C518.699 99.3225 533.53 94.6761 548.565 90.7156C563.601 86.7722 578.857 83.4632 594.351 81.32C609.827 79.194 625.525 78.1482 641.223 78.6625C656.921 79.1769 672.653 81.2857 687.943 85.3148L693.651 86.9265C695.554 87.4752 697.473 87.9552 699.325 88.6925L710.504 92.8073C714.123 94.4361 717.707 96.1335 721.309 97.7965C722.209 98.2252 723.11 98.6195 723.993 99.0824L726.576 100.54L731.757 103.472C761.726 120.977 787.141 146.695 803.858 178.019L803.552 177.487C812.455 193.69 819.165 211.178 823.073 229.369C827.014 247.543 828.034 266.437 825.978 284.953C822.121 320.015 808.021 353.911 786.428 382.064C775.555 396.089 762.796 408.673 748.508 419.234C745.076 422.063 741.22 424.292 737.516 426.744L734.713 428.561C733.796 429.179 732.844 429.779 731.859 430.276L725.998 433.448C724.044 434.494 722.107 435.591 720.12 436.568L714.021 439.243L707.922 441.9C705.866 442.741 703.759 443.444 701.687 444.215C684.936 449.993 667.267 453.165 649.514 452.993C631.794 452.822 613.922 449.084 597.918 441.129C581.779 433.088 568.307 420.589 558.708 405.69C549.16 390.825 543.503 373.08 544.335 355.232C544.386 353.826 544.573 352.317 544.709 350.688C544.862 349.059 544.964 347.328 545.303 345.562C545.456 344.67 545.609 343.761 545.762 342.818C545.966 341.893 546.187 340.967 546.408 340.007C546.748 338.069 547.427 336.166 548.005 334.177Z" fill="#F1F4FF"/>
</svg>
