<svg width="48" height="48" viewBox="0 0 48 48" fill="none" xmlns="http://www.w3.org/2000/svg">
<rect width="48" height="48" rx="24" fill="#1D0C47"/>
<path d="M19 14H25.25V19C25.25 19.7031 25.7969 20.25 26.5 20.25H31.5V31.5C31.5 32.9062 30.3672 34 29 34H19C17.5938 34 16.5 32.9062 16.5 31.5V16.5C16.5 15.1328 17.5938 14 19 14ZM26.5 14L31.5 19H26.5V14ZM19.625 16.5C19.2734 16.5 19 16.8125 19 17.125C19 17.4766 19.2734 17.75 19.625 17.75H22.125C22.4375 17.75 22.75 17.4766 22.75 17.125C22.75 16.8125 22.4375 16.5 22.125 16.5H19.625ZM19.625 19C19.2734 19 19 19.3125 19 19.625C19 19.9766 19.2734 20.25 19.625 20.25H22.125C22.4375 20.25 22.75 19.9766 22.75 19.625C22.75 19.3125 22.4375 19 22.125 19H19.625ZM21.7344 28.9219L22.125 27.6328L22.75 29.8203C22.8281 30.0547 23.0625 30.25 23.2969 30.25C23.5703 30.2891 23.8047 30.1719 23.9219 29.9375L24.2734 29.2344C24.3125 29.1172 24.4688 29 24.625 29C24.7422 29 24.8984 29.1172 24.9375 29.2344L25.2891 29.9375C25.4062 30.1328 25.6016 30.25 25.875 30.25H28.375C28.6875 30.25 29 29.9766 29 29.625C29 29.3125 28.6875 29 28.375 29H26.2266L26.0703 28.6875C25.7969 28.1016 25.2109 27.75 24.625 27.75C24.2344 27.75 23.8438 27.9062 23.5703 28.1406L23.1016 26.6562C22.9844 26.1875 22.5547 25.875 22.125 25.875C21.6562 25.875 21.2266 26.1875 21.1094 26.6562L20.5234 28.5703C20.4453 28.8438 20.2109 29 19.9375 29H19.625C19.2734 29 19 29.3125 19 29.625C19 29.9766 19.2734 30.25 19.625 30.25H19.9375C20.7578 30.25 21.5 29.7422 21.7344 28.9219Z" fill="white"/>
</svg>
