<svg width="48" height="48" viewBox="0 0 48 48" fill="none" xmlns="http://www.w3.org/2000/svg">
<rect width="48" height="48" rx="8" fill="#14023F" fill-opacity="0.96"/>
<path d="M19 15.875C19 14.8594 19.8203 14 20.875 14H27.125C28.1406 14 29 14.8594 29 15.875V34H25.875V30.875C25.875 29.8594 25.0156 29 24 29C22.9453 29 22.125 29.8594 22.125 30.875V34H19V15.875ZM13.375 17.75H17.75V34H13.375C12.3203 34 11.5 33.1797 11.5 32.125V26.5H14.625C14.9375 26.5 15.25 26.2266 15.25 25.875C15.25 25.5625 14.9375 25.25 14.625 25.25H11.5V22.75H14.625C14.9375 22.75 15.25 22.4766 15.25 22.125C15.25 21.8125 14.9375 21.5 14.625 21.5H11.5V19.625C11.5 18.6094 12.3203 17.75 13.375 17.75ZM34.625 17.75C35.6406 17.75 36.5 18.6094 36.5 19.625V21.5H33.375C33.0234 21.5 32.75 21.8125 32.75 22.125C32.75 22.4766 33.0234 22.75 33.375 22.75H36.5V25.25H33.375C33.0234 25.25 32.75 25.5625 32.75 25.875C32.75 26.2266 33.0234 26.5 33.375 26.5H36.5V32.125C36.5 33.1797 35.6406 34 34.625 34H30.25V17.75H34.625ZM23.6875 16.5C23.3359 16.5 23.0625 16.8125 23.0625 17.125V18.0625H22.125C21.7734 18.0625 21.5 18.375 21.5 18.6875V19.3125C21.5 19.6641 21.7734 19.9375 22.125 19.9375H23.0625V20.875C23.0625 21.2266 23.3359 21.5 23.6875 21.5H24.3125C24.625 21.5 24.9375 21.2266 24.9375 20.875V19.9375H25.875C26.1875 19.9375 26.5 19.6641 26.5 19.3125V18.6875C26.5 18.375 26.1875 18.0625 25.875 18.0625H24.9375V17.125C24.9375 16.8125 24.625 16.5 24.3125 16.5H23.6875Z" fill="white"/>
</svg>
