<svg width="48" height="48" viewBox="0 0 48 48" fill="none" xmlns="http://www.w3.org/2000/svg">
<rect width="48" height="48" rx="8" fill="#14023F" fill-opacity="0.96"/>
<path d="M12.5 15.25C12.5 14.5859 13.0469 14 13.75 14H26.25C26.9141 14 27.5 14.5859 27.5 15.25V16.5C27.5 17.2031 26.9141 17.75 26.25 17.75H13.75C13.0469 17.75 12.5 17.2031 12.5 16.5V15.25ZM13.75 19H26.25V22.2812C24.0234 23.4141 22.5 25.7188 22.5 28.375C22.5 30.5234 23.4375 32.4375 24.9609 33.6875C24.6094 33.8828 24.1797 34 23.75 34H16.25C14.8438 34 13.75 32.9062 13.75 31.5V30.25H18.125C18.4375 30.25 18.75 29.9766 18.75 29.625C18.75 29.3125 18.4375 29 18.125 29H13.75V26.5H18.125C18.4375 26.5 18.75 26.2266 18.75 25.875C18.75 25.5625 18.4375 25.25 18.125 25.25H13.75V22.75H18.125C18.4375 22.75 18.75 22.4766 18.75 22.125C18.75 21.8125 18.4375 21.5 18.125 21.5H13.75V19ZM24.375 25.7578C24.6484 25.25 25.3125 25.2109 25.7031 25.6406L32.1094 32.0469C32.5391 32.4375 32.5 33.1016 31.9922 33.375C31.2109 33.7656 30.3125 34 29.375 34C26.25 34 23.75 31.5 23.75 28.375C23.75 27.4375 23.9844 26.5391 24.375 25.7578ZM34.3359 31.0312C34.0625 31.5391 33.3984 31.5391 33.0078 31.1484L26.6016 24.7422C26.2109 24.3516 26.2109 23.6875 26.7188 23.4141C27.5 23.0234 28.3984 22.75 29.375 22.75C32.4609 22.75 35 25.2891 35 28.375C35 29.3516 34.7266 30.25 34.3359 31.0312Z" fill="white"/>
</svg>
