<svg width="48" height="48" viewBox="0 0 48 48" fill="none" xmlns="http://www.w3.org/2000/svg">
<rect width="48" height="48" rx="8" fill="#14023F" fill-opacity="0.96"/>
<path d="M16.5 17.4375C16.5 16.2656 17.4766 15.25 18.6875 15.25H19.3125C20.4844 15.25 21.5 16.2656 21.5 17.4375V23.0625H26.5V17.4375C26.5 16.2656 27.4766 15.25 28.6875 15.25H29.3125C30.4844 15.25 31.5 16.2656 31.5 17.4375V18.0625H32.4375C33.6094 18.0625 34.625 19.0781 34.625 20.25V23.0625H35.5625C36.0703 23.0625 36.5 23.4922 36.5 24C36.5 24.5469 36.0703 24.9375 35.5625 24.9375H34.625V27.75C34.625 28.9609 33.6094 29.9375 32.4375 29.9375H31.5V30.5625C31.5 31.7734 30.4844 32.75 29.3125 32.75H28.6875C27.4766 32.75 26.5 31.7734 26.5 30.5625V24.9375H21.5V30.5625C21.5 31.7734 20.4844 32.75 19.3125 32.75H18.6875C17.4766 32.75 16.5 31.7734 16.5 30.5625V29.9375H15.5625C14.3516 29.9375 13.375 28.9609 13.375 27.75V24.9375H12.4375C11.8906 24.9375 11.5 24.5469 11.5 24C11.5 23.4922 11.8906 23.0625 12.4375 23.0625H13.375V20.25C13.375 19.0781 14.3516 18.0625 15.5625 18.0625H16.5V17.4375ZM18.375 18.0625V19V29V29.9375V30.5625C18.375 30.7578 18.4922 30.875 18.6875 30.875H19.3125C19.4688 30.875 19.625 30.7578 19.625 30.5625V17.4375C19.625 17.2812 19.4688 17.125 19.3125 17.125H18.6875C18.4922 17.125 18.375 17.2812 18.375 17.4375V18.0625ZM16.5 19.9375H15.5625C15.3672 19.9375 15.25 20.0938 15.25 20.25V27.75C15.25 27.9453 15.3672 28.0625 15.5625 28.0625H16.5V19.9375ZM29.625 29V19V18.0625V17.4375C29.625 17.2812 29.4688 17.125 29.3125 17.125H28.6875C28.4922 17.125 28.375 17.2812 28.375 17.4375V30.5625C28.375 30.7578 28.4922 30.875 28.6875 30.875H29.3125C29.4688 30.875 29.625 30.7578 29.625 30.5625V29.9375V29ZM32.4375 28.0625C32.5938 28.0625 32.75 27.9453 32.75 27.75V20.25C32.75 20.0938 32.5938 19.9375 32.4375 19.9375H31.5V28.0625H32.4375Z" fill="white"/>
</svg>
