<svg width="48" height="48" viewBox="0 0 48 48" fill="none" xmlns="http://www.w3.org/2000/svg">
<rect width="48" height="48" rx="8" fill="#14023F" fill-opacity="0.96"/>
<path d="M24 28.375C24 30.7188 25.1328 32.7891 26.8906 34H16.5C15.0938 34 14 32.9062 14 31.5V25.25H12.75C12.0469 25.25 11.5 24.7031 11.5 24C11.5 23.6484 11.6172 23.3359 11.8906 23.0625L21.8906 14.3125C22.1641 14.0391 22.4766 14 22.75 14C23.0234 14 23.3359 14.0781 23.5703 14.2734L31.8906 21.5781C31.5391 21.5391 31.1875 21.5 30.875 21.5C28.7266 21.5 26.8125 22.4766 25.5625 24H24V22.125C24 21.8125 23.6875 21.5 23.375 21.5H22.125C21.7734 21.5 21.5 21.8125 21.5 22.125V24H19.625C19.2734 24 19 24.3125 19 24.625V25.875C19 26.2266 19.2734 26.5 19.625 26.5H21.5V28.375C21.5 28.7266 21.7734 29 22.125 29H23.375C23.6875 29 24 28.7266 24 28.375ZM25.25 28.375C25.25 26.3828 26.3047 24.5469 28.0625 23.5312C29.7812 22.5156 31.9297 22.5156 33.6875 23.5312C35.4062 24.5469 36.5 26.3828 36.5 28.375C36.5 30.4062 35.4062 32.2422 33.6875 33.2578C31.9297 34.2734 29.7812 34.2734 28.0625 33.2578C26.3047 32.2422 25.25 30.4062 25.25 28.375ZM33.4922 26.6953C33.2578 26.4609 32.8281 26.4609 32.5938 26.6953L30.25 29.0781L29.1172 27.9453C28.8828 27.7109 28.4531 27.7109 28.2188 27.9453C27.9844 28.1797 27.9844 28.6094 28.2188 28.8438L29.7812 30.4062C30.0156 30.6406 30.4453 30.6406 30.6797 30.4062L33.4922 27.5938C33.7266 27.3594 33.7266 26.9297 33.4922 26.6953Z" fill="white"/>
</svg>
