<svg width="48" height="48" viewBox="0 0 48 48" fill="none" xmlns="http://www.w3.org/2000/svg">
<rect width="48" height="48" rx="8" fill="#14023F" fill-opacity="0.96"/>
<path d="M18.3359 29.2344C17.9453 29.8594 17.75 30.5625 17.75 31.3047C17.3594 31.4219 16.9297 31.5 16.5 31.5C14.4297 31.5 12.75 29.8203 12.75 27.75V16.5C12.0469 16.5 11.5 15.9531 11.5 15.25C11.5 14.5859 12.0469 14 12.75 14H15.25H17.75H20.25C20.9141 14 21.5 14.5859 21.5 15.25C21.5 15.9531 20.9141 16.5 20.25 16.5V26.1094L18.3359 29.2344ZM15.25 16.5V20.25H17.75V16.5H15.25ZM25.25 14H30.25H31.5C32.1641 14 32.75 14.5859 32.75 15.25C32.75 15.9531 32.1641 16.5 31.5 16.5V22.3984L36.0703 29.8984C36.3438 30.3281 36.5 30.7969 36.5 31.3047C36.5 32.7891 35.25 34 33.7656 34H21.6953C20.2109 34 19 32.7891 19 31.3047C19 30.7969 19.1172 30.3281 19.3906 29.8984L24 22.3984V16.5C23.2969 16.5 22.75 15.9531 22.75 15.25C22.75 14.5859 23.2969 14 24 14H25.25ZM26.5 16.5V22.75C26.5 22.9844 26.4219 23.2188 26.3047 23.4141L24.3906 26.5H31.0703L29.1562 23.4141C29.0391 23.2188 29 22.9844 29 22.75V16.5H26.5Z" fill="white"/>
</svg>
