<svg width="48" height="48" viewBox="0 0 48 48" fill="none" xmlns="http://www.w3.org/2000/svg">
<rect width="48" height="48" rx="8" fill="#14023F" fill-opacity="0.96"/>
<path d="M21.1875 15.875C20.9922 15.875 20.875 16.0312 20.875 16.1875V17.75H27.125V16.1875C27.125 16.0312 26.9688 15.875 26.8125 15.875H21.1875ZM19 16.1875C19 15.0156 19.9766 14 21.1875 14H26.8125C27.9844 14 29 15.0156 29 16.1875V17.75V19V32.75H19V19V17.75V16.1875ZM17.75 17.75V32.75H16.5C15.0938 32.75 14 31.6562 14 30.25V20.25C14 18.8828 15.0938 17.75 16.5 17.75H17.75ZM30.25 32.75V17.75H31.5C32.8672 17.75 34 18.8828 34 20.25V30.25C34 31.6562 32.8672 32.75 31.5 32.75H30.25ZM22.75 22.125V24H20.875C20.5234 24 20.25 24.3125 20.25 24.625V25.875C20.25 26.2266 20.5234 26.5 20.875 26.5H22.75V28.375C22.75 28.7266 23.0234 29 23.375 29H24.625C24.9375 29 25.25 28.7266 25.25 28.375V26.5H27.125C27.4375 26.5 27.75 26.2266 27.75 25.875V24.625C27.75 24.3125 27.4375 24 27.125 24H25.25V22.125C25.25 21.8125 24.9375 21.5 24.625 21.5H23.375C23.0234 21.5 22.75 21.8125 22.75 22.125Z" fill="white"/>
</svg>
