<svg width="48" height="48" viewBox="0 0 48 48" fill="none" xmlns="http://www.w3.org/2000/svg">
<rect width="48" height="48" rx="24" fill="#1D0C47"/>
<path d="M14.1953 14.1562L16.0703 15.4062C16.5 15.7188 16.6172 16.3047 16.3438 16.7344C16.0312 17.1641 15.4453 17.2812 15.0156 16.9688L13.1406 15.7188C12.7109 15.4453 12.5938 14.8594 12.9062 14.4297C13.1797 14 13.7656 13.8828 14.1953 14.1562ZM34.8203 15.7188L32.9453 16.9688C32.5156 17.2812 31.9297 17.1641 31.6562 16.7344C31.3438 16.3047 31.4609 15.7188 31.8906 15.4062L33.7656 14.1562C34.1953 13.8828 34.7812 14 35.0938 14.4297C35.3672 14.8594 35.25 15.4453 34.8203 15.7188ZM12.4375 20.25H14.9375C15.4453 20.25 15.875 20.6797 15.875 21.1875C15.875 21.7344 15.4453 22.125 14.9375 22.125H12.4375C11.8906 22.125 11.5 21.7344 11.5 21.1875C11.5 20.6797 11.8906 20.25 12.4375 20.25ZM33.0625 20.25H35.5625C36.0703 20.25 36.5 20.6797 36.5 21.1875C36.5 21.7344 36.0703 22.125 35.5625 22.125H33.0625C32.5156 22.125 32.125 21.7344 32.125 21.1875C32.125 20.6797 32.5156 20.25 33.0625 20.25ZM16.0703 26.9688L14.1953 28.2188C13.7656 28.5312 13.1797 28.4141 12.9062 27.9844C12.5938 27.5547 12.7109 26.9688 13.1406 26.6562L15.0156 25.4062C15.4453 25.1328 16.0312 25.25 16.3438 25.6797C16.6172 26.1094 16.5 26.6953 16.0703 26.9688ZM32.9453 25.4453L34.8203 26.6953C35.25 26.9688 35.3672 27.5547 35.0938 27.9844C34.7812 28.4141 34.1953 28.5312 33.7656 28.2578L31.8906 27.0078C31.4609 26.6953 31.3438 26.1094 31.6562 25.6797C31.9297 25.25 32.5156 25.1328 32.9453 25.4453ZM29.0391 25.6406C28.2578 26.6953 27.4766 27.7891 27.125 29H20.875C20.4844 27.7891 19.7031 26.6953 18.9219 25.6406C18.7266 25.3672 18.5312 25.0938 18.3359 24.8203C17.5547 23.6875 17.125 22.3594 17.125 20.875C17.125 17.0859 20.1719 14 24 14C27.7891 14 30.875 17.0859 30.875 20.875C30.875 22.3594 30.4062 23.6875 29.625 24.8203C29.4297 25.0938 29.2344 25.3672 29.0391 25.6406ZM27.125 30.875C27.125 32.6328 25.7188 34 24 34C22.2422 34 20.875 32.6328 20.875 30.875V30.25H27.125V30.875ZM24 17.75C24.3125 17.75 24.625 17.4766 24.625 17.125C24.625 16.8125 24.3125 16.5 24 16.5C21.5781 16.5 19.625 18.4922 19.625 20.875C19.625 21.2266 19.8984 21.5 20.25 21.5C20.5625 21.5 20.875 21.2266 20.875 20.875C20.875 19.1562 22.2422 17.75 24 17.75Z" fill="white"/>
</svg>
