<svg width="48" height="48" viewBox="0 0 48 48" fill="none" xmlns="http://www.w3.org/2000/svg">
<rect width="48" height="48" rx="24" fill="#1D0C47"/>
<path d="M19.375 14H28.125C29.1406 14 30 14.8594 29.9609 15.9141C29.9219 16.1094 29.9219 16.3047 29.9219 16.5H34.0625C34.5703 16.5 35 16.9297 35 17.4375C35 21.0703 33.6719 23.5703 31.9141 25.2891C30.1953 26.9688 28.0859 27.8281 26.5234 28.2578C25.5859 28.4922 24.9609 29.2734 24.9609 30.0547C24.9609 30.8359 25.625 31.5 26.4453 31.5H27.5C28.1641 31.5 28.75 32.0859 28.75 32.75C28.75 33.4531 28.1641 34 27.5 34H20C19.2969 34 18.75 33.4531 18.75 32.75C18.75 32.0859 19.2969 31.5 20 31.5H21.0156C21.8359 31.5 22.5 30.8359 22.5 30.0547C22.5 29.2734 21.875 28.4922 20.9375 28.2578C19.375 27.8281 17.2656 26.9688 15.5469 25.2891C13.7891 23.5703 12.5 21.0703 12.5 17.4375C12.5 16.9297 12.8906 16.5 13.4375 16.5H17.5391C17.5391 16.3047 17.5391 16.1094 17.5 15.9141C17.4609 14.8594 18.3203 14 19.375 14ZM17.6953 18.375H14.375C14.6094 20.9922 15.625 22.75 16.8359 23.9609C17.7344 24.8203 18.75 25.4062 19.7266 25.8359C18.8281 24.2734 18.0469 21.9297 17.6953 18.375ZM27.7344 25.8359C28.7109 25.4062 29.7266 24.8203 30.625 23.9609C31.875 22.75 32.8906 20.9922 33.0859 18.375H29.7656C29.4141 21.9297 28.6328 24.2734 27.7344 25.8359ZM24.0234 17.3984C23.9062 17.1641 23.5547 17.1641 23.4375 17.3984L22.6953 18.9219C22.6562 19 22.5781 19.0781 22.4609 19.0781L20.7812 19.3125C20.5469 19.3516 20.4297 19.6641 20.625 19.8594L21.8359 21.0312C21.9141 21.1094 21.9531 21.2266 21.9141 21.3047L21.6406 22.9844C21.6016 23.2578 21.875 23.4531 22.0703 23.2969L23.5938 22.5156C23.6719 22.4766 23.7891 22.4766 23.8672 22.5156L25.3906 23.3359C25.625 23.4531 25.8594 23.2578 25.8203 22.9844L25.5469 21.3047C25.5469 21.2266 25.5469 21.1094 25.625 21.0312L26.8359 19.8594C27.0312 19.7031 26.9141 19.3516 26.6797 19.3516L25 19.0781C24.8828 19.0781 24.8047 19 24.7656 18.9219L24.0234 17.3984Z" fill="white"/>
</svg>
