<svg width="48" height="48" viewBox="0 0 48 48" fill="none" xmlns="http://www.w3.org/2000/svg">
<rect width="48" height="48" rx="8" fill="#14023F" fill-opacity="0.96"/>
<path d="M34 17.125C34 17.8281 33.4141 18.4922 32.4766 19C31.3438 19.6641 29.6641 20.0938 27.7109 20.2109C27.5547 20.1719 27.3984 20.0938 27.2812 20.0156C25.7188 19.3906 23.6875 19 21.5 19C21.1484 19 20.8359 19.0391 20.5234 19.0391L20.4844 19C19.5469 18.4922 19 17.8281 19 17.125C19 15.4062 22.3594 14 26.5 14C30.6406 14 34 15.4062 34 17.125ZM20.25 20.3281C20.6406 20.2891 21.0703 20.25 21.5 20.25C23.9219 20.25 26.0703 20.7578 27.4375 21.5C28.4141 22.0078 29 22.6719 29 23.375C29 23.5312 28.9609 23.6875 28.8828 23.8438C28.7266 24.3516 28.2188 24.8203 27.5156 25.25H27.4766C26.1094 26.0312 23.9219 26.5 21.5 26.5C19.1562 26.5 17.0859 26.0703 15.6797 25.3672C15.6016 25.3281 15.5625 25.2891 15.4844 25.25C14.5469 24.7422 14 24.0781 14 23.375C14 22.0469 16.0703 20.875 19 20.4453C19.3906 20.4062 19.8203 20.3281 20.25 20.3281ZM30.25 23.375C30.25 22.5547 29.8203 21.8516 29.2734 21.3047C30.4062 21.1484 31.4219 20.875 32.2812 20.5234C32.9062 20.25 33.4922 19.8984 34 19.5078V20.875C34 21.6562 33.3359 22.3594 32.2812 22.8672C31.6953 23.1797 30.9922 23.4141 30.2109 23.6094C30.2109 23.5312 30.25 23.4531 30.25 23.4141V23.375ZM29 27.125C29 27.8281 28.4141 28.4922 27.4766 29C27.3984 29.0391 27.3594 29.0781 27.2812 29.1172C25.875 29.8203 23.8047 30.25 21.5 30.25C19.0391 30.25 16.8516 29.7812 15.4844 29C14.5469 28.4922 14 27.8281 14 27.125V25.7578C14.4688 26.1484 15.0547 26.5 15.6797 26.7734C17.2422 27.3984 19.2734 27.75 21.5 27.75C23.6875 27.75 25.7188 27.3984 27.2812 26.7734C27.5547 26.6172 27.8672 26.5 28.1406 26.3438C28.375 26.1875 28.6094 26.0312 28.8047 25.875C28.8828 25.8359 28.9219 25.7969 29 25.7578V25.875V26.1094V27.125ZM30.25 27.125V25.875V24.8984C30.9922 24.7031 31.6562 24.5078 32.2812 24.2734C32.9062 24 33.4922 23.6484 34 23.2578V24.625C34 25.0547 33.8047 25.4453 33.4141 25.8359C32.75 26.5 31.6562 27.0078 30.2109 27.3594C30.2109 27.2812 30.25 27.2031 30.25 27.125ZM21.5 31.5C23.6875 31.5 25.7188 31.1484 27.2812 30.5234C27.9062 30.25 28.4922 29.8984 29 29.5078V30.875C29 32.6328 25.6406 34 21.5 34C17.3594 34 14 32.6328 14 30.875V29.5078C14.4688 29.8984 15.0547 30.25 15.6797 30.5234C17.2422 31.1484 19.2734 31.5 21.5 31.5Z" fill="white"/>
</svg>
