<svg width="48" height="48" viewBox="0 0 48 48" fill="none" xmlns="http://www.w3.org/2000/svg">
<rect width="48" height="48" rx="8" fill="#14023F" fill-opacity="0.96"/>
<path d="M14 24C14 20.4453 15.875 17.1641 19 15.3672C22.0859 13.5703 25.875 13.5703 29 15.3672C32.0859 17.1641 34 20.4453 34 24C34 27.5938 32.0859 30.875 29 32.6719C25.875 34.4688 22.0859 34.4688 19 32.6719C15.875 30.875 14 27.5938 14 24ZM21.9297 20.2891C21.6953 20.6406 21.3047 20.875 20.875 20.875C20.1719 20.875 19.625 20.3281 19.625 19.625C19.625 19.2734 19.7422 18.9609 20.0156 18.7266C19.8594 18.7266 19.7422 18.6875 19.625 18.6875C18.2188 18.6875 17.125 19.8203 17.125 21.1875V21.6172C17.125 22.2422 17.6328 22.75 18.2578 22.75H20.9531C21.5781 22.75 22.125 22.2422 22.125 21.6172V21.1875C22.125 20.875 22.0469 20.5625 21.9297 20.2891ZM29 20.875C28.2969 20.875 27.75 20.3281 27.75 19.625C27.75 19.3125 27.8672 19 28.0625 18.7656C27.8672 18.7266 27.6328 18.6875 27.4375 18.6875C25.875 18.6875 24.625 19.9766 24.625 21.5V21.8125C24.625 22.3203 25.0547 22.75 25.5625 22.75H29.2734C29.8203 22.75 30.25 22.3203 30.25 21.8125V21.5C30.25 21.1094 30.1328 20.7188 30.0156 20.3672C29.7812 20.6797 29.3906 20.875 29 20.875ZM23.5703 31.5C23.6875 31.5 23.7656 31.5 23.8828 31.5H24.0781C26.2266 31.5 28.1797 30.4844 29.4297 28.8828C30.0547 28.0625 30.4844 27.125 30.6797 26.1094C30.7969 25.6797 30.4453 25.25 30.0156 25.25H17.9453C17.5156 25.25 17.2031 25.6797 17.2812 26.1094C17.8672 29.1562 20.4844 31.3828 23.5703 31.5ZM23.375 30.25C23.4141 28.5312 24.8203 27.125 26.5781 27.125C27.3594 27.125 28.0625 27.3984 28.6094 27.8672C27.6328 29.3516 25.9531 30.25 24.0781 30.25H23.8828C23.6875 30.25 23.5312 30.25 23.375 30.25Z" fill="white"/>
</svg>
