<svg width="56" height="56" viewBox="0 0 56 56" fill="none" xmlns="http://www.w3.org/2000/svg">
<g filter="url(#filter0_d_4548_18504)">
<rect x="4" width="48" height="48" rx="8" fill="#14023F" fill-opacity="0.96" shape-rendering="crispEdges"/>
<path d="M32.6328 15.7578L29.625 22.7891H34C34.5078 22.7891 34.9766 23.1016 35.1719 23.5703C35.3281 24.0781 35.2109 24.625 34.8203 24.9766L24.8203 33.7266C24.3516 34.0781 23.7266 34.1172 23.2578 33.7656C22.7891 33.4531 22.5938 32.8281 22.8281 32.2812L25.8359 25.25H21.5C20.9531 25.25 20.4844 24.9375 20.3281 24.4688C20.1328 23.9609 20.25 23.4141 20.6406 23.0625L30.6406 14.3125C31.1094 13.9609 31.7344 13.9219 32.2031 14.2734C32.6719 14.5859 32.8672 15.2109 32.6328 15.7578Z" fill="white"/>
</g>
<defs>
<filter id="filter0_d_4548_18504" x="0" y="0" width="56" height="56" filterUnits="userSpaceOnUse" color-interpolation-filters="sRGB">
<feFlood flood-opacity="0" result="BackgroundImageFix"/>
<feColorMatrix in="SourceAlpha" type="matrix" values="0 0 0 0 0 0 0 0 0 0 0 0 0 0 0 0 0 0 127 0" result="hardAlpha"/>
<feOffset dy="4"/>
<feGaussianBlur stdDeviation="2"/>
<feComposite in2="hardAlpha" operator="out"/>
<feColorMatrix type="matrix" values="0 0 0 0 0 0 0 0 0 0 0 0 0 0 0 0 0 0 0.25 0"/>
<feBlend mode="normal" in2="BackgroundImageFix" result="effect1_dropShadow_4548_18504"/>
<feBlend mode="normal" in="SourceGraphic" in2="effect1_dropShadow_4548_18504" result="shape"/>
</filter>
</defs>
</svg>
