<svg width="48" height="48" viewBox="0 0 48 48" fill="none" xmlns="http://www.w3.org/2000/svg">
<rect width="48" height="48" rx="8" fill="#FF9100"/>
<path d="M14.375 14H23.125C24.1406 14 25 14.8594 25 15.875V24.625V28.375C23.4766 29.2344 22.5 30.7969 22.5 32.6328C22.5 33.1406 22.6172 33.6094 22.8516 34H14.375C13.3203 34 12.5 33.1797 12.5 32.125V29H18.125C18.4375 29 18.75 28.7266 18.75 28.375C18.75 28.0625 18.4375 27.75 18.125 27.75H12.5V25.25H18.125C18.4375 25.25 18.75 24.9766 18.75 24.625C18.75 24.3125 18.4375 24 18.125 24H12.5V15.875C12.5 14.8594 13.3203 14 14.375 14ZM18.4375 16.5C18.0859 16.5 17.8125 16.8125 17.8125 17.125V18.0625H16.875C16.5234 18.0625 16.25 18.375 16.25 18.6875V19.3125C16.25 19.6641 16.5234 19.9375 16.875 19.9375H17.8125V20.875C17.8125 21.2266 18.0859 21.5 18.4375 21.5H19.0625C19.375 21.5 19.6875 21.2266 19.6875 20.875V19.9375H20.625C20.9375 19.9375 21.25 19.6641 21.25 19.3125V18.6875C21.25 18.375 20.9375 18.0625 20.625 18.0625H19.6875V17.125C19.6875 16.8125 19.375 16.5 19.0625 16.5H18.4375ZM32.5 24.625C32.5 25.7578 31.875 26.7734 30.9375 27.3594C29.9609 27.9062 28.75 27.9062 27.8125 27.3594C26.8359 26.7734 26.25 25.7578 26.25 24.625C26.25 23.5312 26.8359 22.5156 27.8125 21.9297C28.75 21.3828 29.9609 21.3828 30.9375 21.9297C31.875 22.5156 32.5 23.5312 32.5 24.625ZM23.75 32.6719C23.75 30.6406 25.3516 29 27.3828 29H31.3281C33.3594 29 35 30.6406 35 32.6719C35 33.4141 34.375 34 33.6328 34H25.0781C24.3359 34 23.75 33.4141 23.75 32.6719Z" fill="white"/>
</svg>
