<svg width="48" height="48" viewBox="0 0 48 48" fill="none" xmlns="http://www.w3.org/2000/svg">
<rect width="48" height="48" rx="8" fill="#FF9100"/>
<path d="M24 34C20.4062 34 17.125 32.125 15.3281 29C13.5312 25.9141 13.5312 22.125 15.3281 19C17.125 15.9141 20.4062 14 24 14C27.5547 14 30.8359 15.9141 32.6328 19C34.4297 22.125 34.4297 25.9141 32.6328 29C30.8359 32.125 27.5547 34 24 34ZM27.9844 21.1484C28.1016 20.8359 28.0625 20.4453 27.7891 20.2109C27.5547 19.9766 27.1641 19.8984 26.8516 20.0156L19.1953 23.2969C18.8047 23.4531 18.6094 23.8828 18.6875 24.2734C18.7656 24.6641 19.1172 24.9375 19.5469 24.9375H23.0625V28.4531C23.0625 28.8828 23.3359 29.2344 23.7266 29.3125C23.8047 29.3125 23.8438 29.3125 23.9219 29.3125C24.2344 29.3125 24.5469 29.1172 24.7031 28.8047L27.9844 21.1484Z" fill="white"/>
</svg>
