<svg width="48" height="48" viewBox="0 0 48 48" fill="none" xmlns="http://www.w3.org/2000/svg">
<rect width="48" height="48" rx="8" fill="#FF9100"/>
<path d="M15.25 19C15.25 17.2422 16.1875 15.6016 17.75 14.7031C19.2734 13.8047 21.1875 13.8047 22.75 14.7031C24.2734 15.6016 25.25 17.2422 25.25 19C25.25 20.7969 24.2734 22.4375 22.75 23.3359C21.1875 24.2344 19.2734 24.2344 17.75 23.3359C16.1875 22.4375 15.25 20.7969 15.25 19ZM11.5 32.8672C11.5 29.7031 13.6094 27.0078 16.5 26.1875V28.4922C15.5625 28.7656 14.9375 29.5859 14.9375 30.5625C14.9375 31.7734 15.9141 32.75 17.125 32.75C18.2969 32.75 19.3125 31.7734 19.3125 30.5625C19.3125 29.5859 18.6484 28.7656 17.75 28.4922V25.9141C17.9844 25.9141 18.2188 25.875 18.4531 25.875H22.0078C22.2422 25.875 22.5156 25.9141 22.75 25.9141V28.1406C21.6562 28.4531 20.875 29.4297 20.875 30.5625V32.125C20.875 32.4766 21.1484 32.75 21.5 32.75H22.125C22.4375 32.75 22.75 32.4766 22.75 32.125C22.75 31.8125 22.4375 31.5 22.125 31.5V30.5625C22.125 29.8984 22.6719 29.3125 23.375 29.3125C24.0391 29.3125 24.625 29.8984 24.625 30.5625V31.5C24.2734 31.5 24 31.8125 24 32.125C24 32.4766 24.2734 32.75 24.625 32.75H25.25C25.5625 32.75 25.875 32.4766 25.875 32.125V30.5625C25.875 29.4297 25.0547 28.4531 24 28.1406V26.1875C26.8906 27.0078 29 29.7031 29 32.8672C29 33.4922 28.4531 34 27.8281 34H12.6328C12.0078 34 11.5 33.4922 11.5 32.8672ZM16.1875 30.5625C16.1875 30.0547 16.5781 29.625 17.125 29.625C17.6328 29.625 18.0625 30.0547 18.0625 30.5625C18.0625 31.1094 17.6328 31.5 17.125 31.5C16.5781 31.5 16.1875 31.1094 16.1875 30.5625ZM28.375 14H34.625C35.6406 14 36.5 14.8594 36.5 15.875V20.875C36.5 21.9297 35.6406 22.75 34.625 22.75H32.75L29.4688 25.2109C29.3906 25.2891 29.2734 25.2891 29.1562 25.25C29.0391 25.1719 29 25.0938 29 24.9375V22.75H28.375C27.3203 22.75 26.5 21.9297 26.5 20.875V15.875C26.5 14.8594 27.3203 14 28.375 14Z" fill="white"/>
</svg>
