<svg width="48" height="48" viewBox="0 0 48 48" fill="none" xmlns="http://www.w3.org/2000/svg">
<rect width="48" height="48" rx="8" fill="#FF9100"/>
<path d="M23.9609 14C24.5078 14 25.0547 14.3906 25.1719 14.9375L28.0625 25.5234L28.7656 24.1562C29.1953 23.2969 30.0547 22.75 30.9922 22.75H35.25C35.9141 22.75 36.5 23.3359 36.5 24C36.5 24.7031 35.9141 25.25 35.25 25.25H30.9922L28.8438 29.5859C28.6094 30.0547 28.1406 30.3281 27.5938 30.25C27.0859 30.2109 26.6562 29.8594 26.5391 29.3516L24.1172 20.5625L21.4609 33.0234C21.3438 33.6094 20.8359 34 20.2891 34C19.7031 34.0391 19.1953 33.6484 19.0391 33.1016L16.7734 25.25H12.75C12.0469 25.25 11.5 24.7031 11.5 24C11.5 23.3359 12.0469 22.75 12.75 22.75H16.7734C17.9062 22.75 18.8828 23.4922 19.1953 24.5859L20.0547 27.5938L22.75 15.0156C22.8672 14.4297 23.375 14.0391 23.9609 14Z" fill="white"/>
</svg>
