<svg width="48" height="48" viewBox="0 0 48 48" fill="none" xmlns="http://www.w3.org/2000/svg">
<rect width="48" height="48" rx="8" fill="#14023F" fill-opacity="0.96"/>
<path d="M22.125 15.25C22.125 14.5859 22.6719 14 23.375 14H24.625C25.2891 14 25.875 14.5859 25.875 15.25V20.7578L30.6406 18.0234C31.2266 17.6719 31.9688 17.8672 32.3203 18.4922L32.9453 19.5469C33.2969 20.1719 33.1016 20.9141 32.5156 21.2656L27.75 24L32.5156 26.7734C33.1016 27.125 33.2969 27.8672 32.9453 28.4922L32.3203 29.5469C31.9688 30.1719 31.2266 30.3672 30.6406 30.0156L25.875 27.2812V32.75C25.875 33.4531 25.2891 34 24.625 34H23.375C22.6719 34 22.125 33.4531 22.125 32.75V27.2812L17.3594 30.0156C16.7344 30.3672 15.9922 30.1719 15.6406 29.5469L15.0156 28.4922C14.6641 27.8672 14.8594 27.125 15.4844 26.7734L20.25 24L15.4844 21.2656C14.8594 20.9141 14.6641 20.1719 15.0156 19.5469L15.6406 18.4922C15.9922 17.8672 16.7344 17.6719 17.3594 18.0234L22.125 20.7578V15.25Z" fill="white"/>
</svg>
