<svg width="42" height="33" viewBox="0 0 42 33" fill="none" xmlns="http://www.w3.org/2000/svg">
<path d="M22.5 1.5V6.5C22.5 7.375 21.8125 8 21 8C20.125 8 19.5 7.375 19.5 6.5V1.5C19.5 0.6875 20.125 0 21 0C21.8125 0 22.5 0.6875 22.5 1.5ZM13.5625 4.4375L16.5625 7.4375C17.125 8.0625 17.125 9 16.5625 9.5625C15.9375 10.1875 15 10.1875 14.4375 9.5625L11.4375 6.5625C10.8125 6 10.8125 5.0625 11.4375 4.4375C12 3.875 12.9375 3.875 13.5625 4.4375ZM30.5625 6.5625L27.5625 9.5625C26.9375 10.1875 26 10.1875 25.4375 9.5625C24.8125 9 24.8125 8.0625 25.4375 7.5L28.4375 4.5C29 3.875 29.9375 3.875 30.5625 4.5C31.125 5.0625 31.125 6 30.5625 6.5625ZM19.5 16.5625C19.625 17.375 19.0625 18.125 18.25 18.25L12.75 19.25C10.9375 19.5625 9.375 18.4375 8.8125 16.9375C8.4375 15.875 7.25 15.1875 6.0625 15.375C4.625 15.625 3.75 16.875 4 18.1875C4.125 18.9375 4.5625 19.5 5.125 19.875C6.875 21 7.375 23.4375 6.0625 25.0625C5.625 25.625 5.4375 26.3125 5.5625 27C5.8125 28.3125 7.0625 29.25 8.5 29C9.6875 28.75 10.5625 27.75 10.5625 26.5625C10.5625 25 11.625 23.375 13.4375 23.0625L20.6875 21.8125C20.75 21.8125 20.875 21.8125 21 21.8125C21.0625 21.8125 21.1875 21.8125 21.25 21.8125L28.5 23.0625C30.3125 23.375 31.4375 25 31.4375 26.5625C31.4375 27.75 32.25 28.75 33.5 29C34.875 29.25 36.125 28.3125 36.375 27C36.5 26.3125 36.3125 25.625 35.875 25.0625C34.625 23.4375 35.0625 21 36.8125 19.875C37.375 19.5 37.8125 18.875 37.9375 18.1875C38.1875 16.875 37.3125 15.625 35.9375 15.375C34.6875 15.125 33.5 15.875 33.125 16.9375C32.5625 18.4375 31 19.5625 29.1875 19.25L23.6875 18.25C22.875 18.125 22.375 17.375 22.4375 16.5625C22.5625 15.75 23.375 15.1875 24.1875 15.3125L29.6875 16.25C30 16.3125 30.1875 16.1875 30.3125 15.9375C31.1875 13.5 33.75 11.9375 36.4375 12.4375C39.4375 12.9375 41.4375 15.75 40.875 18.75C40.625 20.3125 39.6875 21.5625 38.4375 22.375C38.125 22.5625 38.0625 23 38.25 23.25C39.1875 24.4375 39.625 25.9375 39.3125 27.5C38.8125 30.5 35.9375 32.5 32.9375 31.9375C30.3125 31.5 28.375 29.1875 28.4375 26.5625C28.4375 26.3125 28.25 26.0625 28 26.0625L21 24.8125L14 26.0625C13.6875 26.0625 13.5625 26.3125 13.5625 26.5625C13.5625 29.1875 11.6875 31.5 9 31.9375C6 32.4375 3.125 30.5 2.625 27.5C2.375 25.9375 2.75 24.4375 3.6875 23.25C3.875 23 3.8125 22.5625 3.5 22.375C2.25 21.5625 1.3125 20.3125 1.0625 18.75C0.5 15.75 2.5 12.9375 5.5 12.4375C8.1875 11.9375 10.75 13.5 11.625 15.9375C11.75 16.1875 12 16.3125 12.25 16.25L17.75 15.3125C18.5625 15.1875 19.375 15.75 19.5 16.5625Z" fill="#000164"/>
</svg>
