<svg width="33" height="31" viewBox="0 0 33 31" fill="none" xmlns="http://www.w3.org/2000/svg">
<path d="M1.5 0H2H5H11H14H14.5C15.3125 0 16 0.6875 16 1.5C16 2.375 15.3125 3 14.5 3H14V11C13.75 11.125 13.5625 11.25 13.4375 11.4375C12.0625 12.8125 12.0625 15 13.4375 16.375V16.4375H13.375C12.4375 16.4375 11.625 16.8125 11 17.4375V13H5V22C5 23.6875 6.3125 25 8 25C9.5 25 10.75 23.9375 10.9375 22.4375C11.5625 23.0625 12.4375 23.4375 13.375 23.4375C13.375 23.4375 13.375 23.4375 13.4375 23.4375V23.5V23.5625C12.75 24.25 12.375 25.1875 12.375 26.0625C11.3125 27.25 9.75 28 8 28C4.6875 28 2 25.3125 2 22V3H1.5C0.625 3 0 2.375 0 1.5C0 0.6875 0.625 0 1.5 0ZM5 10H11V3H5V10ZM21.9375 9.875C22.8125 9.875 23.4375 10.5625 23.4375 11.375C23.4375 13.1875 25.6875 14.125 26.9375 12.8125C27.5625 12.25 28.5 12.25 29.0625 12.8125C29.6875 13.4375 29.6875 14.375 29.0625 14.9375C27.8125 16.25 28.6875 18.4375 30.5625 18.4375C31.375 18.4375 32.0625 19.125 32.0625 19.9375C32.0625 20.8125 31.375 21.4375 30.5625 21.4375C28.6875 21.4375 27.8125 23.6875 29.0625 24.9375C29.6875 25.5625 29.6875 26.5 29.0625 27.0625C28.5 27.6875 27.5625 27.6875 26.9375 27.0625C25.6875 25.8125 23.4375 26.6875 23.4375 28.5625C23.4375 29.375 22.8125 30.0625 21.9375 30.0625C21.125 30.0625 20.4375 29.375 20.4375 28.5625C20.4375 26.6875 18.25 25.8125 16.9375 27.0625C16.375 27.6875 15.4375 27.6875 14.8125 27.0625C14.25 26.5 14.25 25.5625 14.8125 24.9375C16.125 23.6875 15.1875 21.4375 13.375 21.4375C12.5625 21.4375 11.875 20.8125 11.875 19.9375C11.875 19.125 12.5625 18.4375 13.375 18.4375C15.1875 18.4375 16.125 16.25 14.8125 14.9375C14.25 14.375 14.25 13.4375 14.8125 12.8125C15.4375 12.25 16.375 12.25 16.9375 12.8125C18.25 14.125 20.4375 13.1875 20.4375 11.375C20.4375 10.5625 21.125 9.875 21.9375 9.875ZM20 16C18.875 16 18 16.9375 18 18C18 19.125 18.875 20 20 20C21.0625 20 22 19.125 22 18C22 16.9375 21.0625 16 20 16ZM22.5 22C22.5 22.875 23.125 23.5 24 23.5C24.8125 23.5 25.5 22.875 25.5 22C25.5 21.1875 24.8125 20.5 24 20.5C23.125 20.5 22.5 21.1875 22.5 22Z" fill="#000164"/>
</svg>
