<svg width="32" height="32" viewBox="0 0 32 32" fill="none" xmlns="http://www.w3.org/2000/svg">
<path d="M3 14C3 16.6875 3.875 19.0625 5.4375 21C6.3125 22 7 23.375 7 24.9375V30.5C7 31.375 6.3125 32 5.5 32C4.625 32 4 31.375 4 30.5V24.9375C4 24.25 3.6875 23.5625 3.125 22.875C1.125 20.4375 0 17.375 0 14C0 6.3125 6.25 0 14 0H15.5C20.375 0 24.9375 3 26.9375 7.3125C27.1875 7.875 27.4375 8.4375 27.6875 9L27.75 9.1875C28 9.8125 28.3125 10.4375 28.5625 11C29.125 12.1875 29.75 13.1875 30.5625 13.9375L30.8125 14.25C31.5625 15 31.9375 16 32 17V17.0625V17.125C31.9375 17.75 31.875 18.375 31.6875 19L31.375 20L28.8125 29.125C28.3125 30.875 26.75 32 24.9375 32H16C14.875 32 14 31.125 14 30V20V19.8125L3.0625 12.5625C3 13.0625 3 13.5 3 14ZM15.1875 17H17H29C28.9375 16.75 28.875 16.5625 28.6875 16.375L28.4375 16.0625C27.25 14.9375 26.5 13.625 25.875 12.3125C25.5625 11.6875 25.25 11 25 10.375L24.9375 10.1875C24.6875 9.625 24.4375 9.0625 24.1875 8.5625C22.6875 5.3125 19.25 3 15.5 3H14C9.5 3 5.625 5.6875 3.9375 9.5L15.1875 17ZM21 14C19.875 14 19 13.125 19 12C19 10.9375 19.875 10 21 10C22.0625 10 23 10.9375 23 12C23 13.125 22.0625 14 21 14ZM24.9375 29C25.375 29 25.8125 28.75 25.9375 28.3125L26.125 27.5H21C20.4375 27.5 20 27.0625 20 26.5C20 26 20.4375 25.5 21 25.5H26.6875L27.25 23.5H21C20.4375 23.5 20 23.0625 20 22.5C20 22 20.4375 21.5 21 21.5H27.875L28.25 20H17V29H24.9375Z" fill="#000164"/>
</svg>
