<svg width="40" height="33" viewBox="0 0 40 33" fill="none" xmlns="http://www.w3.org/2000/svg">
<path d="M20 5C19.0625 5 18.25 4.5625 17.8125 3.75C17.375 3 17.375 2.0625 17.8125 1.25C18.25 0.5 19.0625 0 20 0C20.875 0 21.6875 0.5 22.125 1.25C22.5625 2.0625 22.5625 3 22.125 3.75C21.6875 4.5625 20.875 5 20 5ZM22.75 10.3125L23.4375 15.8125C23.5625 16.6875 23 17.4375 22.1875 17.5C21.3125 17.625 20.5625 17.0625 20.5 16.1875L20.1875 14H19.75L19.4375 16.1875C19.375 17.0625 18.625 17.625 17.8125 17.5C16.9375 17.4375 16.375 16.6875 16.5 15.8125L17.1875 10.3125L15.9375 11.3125C15.3125 11.875 14.375 11.8125 13.8125 11.1875C13.3125 10.5 13.375 9.5625 14 9.0625L15.75 7.5625C16.9375 6.5625 18.4375 6 20 6C21.5 6 23 6.5625 24.1875 7.5625L25.9375 9.0625C26.5625 9.5625 26.625 10.5625 26.125 11.1875C25.5625 11.8125 24.625 11.875 24 11.3125L22.75 10.3125ZM9 8.5H8.9375V16.5625C9.6875 15.9375 10.6875 15.5 11.8125 15.5C12.9375 15.5 14.0625 16 14.875 16.8125L18.6875 20.625C19.1875 21.125 19.625 21.625 19.9375 22.1875C20.3125 21.625 20.75 21.125 21.25 20.625L25.0625 16.8125C25.875 16 27 15.5 28.125 15.5C29.1875 15.5 30.1875 15.9375 30.9375 16.5625V8.5C30.9375 6.0625 33 4 35.4375 4C37.9375 4 39.9375 6.0625 39.9375 8.5V22.0625C39.9375 24 39.1875 25.9375 37.75 27.3125L33.5 31.5625C32.9375 32.1875 32 32.1875 31.4375 31.5625C30.8125 31 30.8125 30.0625 31.4375 29.4375L35.625 25.25C36.5 24.375 36.9375 23.25 36.9375 22.0625V8.5C36.9375 7.6875 36.3125 7 35.4375 7C34.625 7 33.9375 7.6875 33.9375 8.5V17.625C33.9375 19.25 33.3125 20.8125 32.1875 21.9375L31.1875 22.9375L29.5 24.5625L28.5 25.5625C27.9375 26.1875 27 26.1875 26.4375 25.5625C25.8125 25 25.8125 24.0625 26.4375 23.4375L27.4375 22.4375L29.0625 20.8125C29.3125 20.5625 29.5 20.1875 29.5 19.875C29.5 19.125 28.875 18.5 28.125 18.5C27.8125 18.5 27.4375 18.6875 27.1875 18.9375L23.375 22.75C22.125 23.9375 21.5 25.625 21.5 27.3125V30.5C21.5 31.375 20.8125 32 20 32C19.125 32 18.5 31.375 18.5 30.5V27.3125C18.5 25.625 17.8125 23.9375 16.5625 22.75L12.75 18.9375C12.5 18.6875 12.125 18.5625 11.8125 18.5625C11.0625 18.5625 10.5 19.125 10.5 19.875C10.5 20.1875 10.625 20.5625 10.875 20.8125L12.5 22.5L13.5 23.5C14.125 24.0625 14.125 25 13.5 25.5625C12.9375 26.1875 12 26.1875 11.4375 25.5625L10.4375 24.5625L8.75 22.9375L7.75 21.9375C6.625 20.8125 6 19.25 6 17.625V8.5C6 7.6875 5.3125 7 4.5 7C3.625 7 3 7.6875 3 8.5V22.0625C3 23.25 3.4375 24.375 4.3125 25.25L8.5 29.5C9.125 30.0625 9.125 31 8.5 31.5625C7.9375 32.1875 7 32.1875 6.4375 31.5625L2.1875 27.375C0.75 25.9375 0 24 0 22.0625V8.5C0 6.0625 2 4 4.5 4C6.9375 4 9 6.0625 9 8.5Z" fill="#000164"/>
</svg>
