<svg width="33" height="33" viewBox="0 0 33 33" fill="none" xmlns="http://www.w3.org/2000/svg">
<path d="M20.5625 1.4375L22.5625 3.4375L29.5 10.4375L31.5 12.4375C32.125 13.0625 32.125 14 31.5 14.5625C30.9375 15.1875 30 15.1875 29.4375 14.5625L28.5 13.625L11 31.125C9.75 32.375 8.125 33 6.4375 33C2.875 33 0 30.125 0 26.5625C0 24.875 0.625 23.25 1.875 22L19.375 4.5L18.4375 3.5625C17.8125 3 17.8125 2.0625 18.4375 1.4375C19 0.875 19.9375 0.875 20.5625 1.4375ZM11.125 17H11.0625H20.875L26.375 11.5L21.5 6.625L11.125 17Z" fill="#000164"/>
</svg>
