<svg width="24" height="32" viewBox="0 0 24 32" fill="none" xmlns="http://www.w3.org/2000/svg">
<path d="M21 12C21 7.0625 16.9375 3 12 3C7 3 3 7.0625 3 12V23C3 26.3125 5.6875 29 9 29C12.3125 29 15 26.3125 15 23C15 21.6875 15.625 20.375 16.8125 19.625C19.3125 18 21 15.1875 21 12ZM24 12C24 16.25 21.75 20 18.4375 22.125C18.125 22.3125 18 22.6875 18 23C18 28 13.9375 32 9 32C4 32 0 28 0 23V12C0 5.375 5.375 0 12 0C18.625 0 24 5.375 24 12ZM8 12V13.3125C8 13.5 8.0625 13.625 8.25 13.75L9.125 14.1875C10.25 14.75 10.9375 15.875 10.9375 17.1875C10.9375 18.1875 10.5 19.125 9.75 19.75L7.4375 21.6875C6.8125 22.1875 5.875 22.125 5.3125 21.5C4.8125 20.875 4.875 19.9375 5.5 19.375L7.875 17.4375C7.9375 17.375 8 17.25 8 17.1875C8 17.0625 7.875 16.9375 7.8125 16.875L6.9375 16.4375C5.75 15.8125 5 14.625 5 13.3125V12C5 8.1875 8.125 5 12 5C15.8125 5 19 8.1875 19 12V12.5C19 13.375 18.3125 14 17.5 14C16.625 14 16 13.375 16 12.5V12C16 9.8125 14.1875 8 12 8C9.75 8 8 9.8125 8 12Z" fill="#000164"/>
</svg>
