<svg width="32" height="31" viewBox="0 0 32 31" fill="none" xmlns="http://www.w3.org/2000/svg">
<path d="M0 1.5C0 0.6875 0.625 0 1.5 0H2H5H11H14H14.5C15.3125 0 16 0.6875 16 1.5C16 2.375 15.3125 3 14.5 3H14V14.6875C12.6875 16.5 12 18.6875 12 21C12 22.625 12.3125 24.125 12.875 25.4375C11.8125 27 10 28 8 28C4.6875 28 2 25.3125 2 22V3H1.5C0.625 3 0 2.375 0 1.5ZM5 3V10H11V3H5ZM5 13V22C5 23.6875 6.3125 25 8 25C9.625 25 11 23.6875 11 22V13H5ZM14 21C14 17.8125 15.6875 14.875 18.5 13.25C21.25 11.625 24.6875 11.625 27.5 13.25C30.25 14.875 32 17.8125 32 21C32 24.25 30.25 27.1875 27.5 28.8125C24.6875 30.4375 21.25 30.4375 18.5 28.8125C15.6875 27.1875 14 24.25 14 21ZM27.1875 18.3125C26.8125 17.9375 26.125 17.9375 25.75 18.3125L22 22.125L20.1875 20.3125C19.8125 19.9375 19.125 19.9375 18.75 20.3125C18.375 20.6875 18.375 21.375 18.75 21.75L21.25 24.25C21.625 24.625 22.3125 24.625 22.6875 24.25L27.1875 19.75C27.5625 19.375 27.5625 18.6875 27.1875 18.3125Z" fill="#000164"/>
</svg>
