<svg width="34" height="34" viewBox="0 0 34 34" fill="none" xmlns="http://www.w3.org/2000/svg">
<path d="M27.4375 2.9375L27.1875 3.8125C28.4375 4.4375 29.5 5.5 30.1875 6.8125L31.0625 6.5625C31.875 6.375 32.6875 6.8125 32.9375 7.625C33.125 8.4375 32.6875 9.25 31.875 9.5L30.9375 9.75C31 11.1875 30.625 12.625 29.875 13.8125L30.5 14.5C31.125 15.0625 31.125 16 30.5 16.5625C29.9375 17.1875 29 17.1875 28.4375 16.5625L27.75 15.9375C27.0625 16.375 26.375 16.6875 25.5625 16.875C25.0625 16.9375 24.5625 17.0625 24.1875 17.25L24.4375 18.125C24.625 18.9375 24.1875 19.75 23.375 20C22.5625 20.1875 21.75 19.75 21.5 18.9375L21.375 18.5C19.9375 19.375 19 20.4375 18.375 21.375L19.0625 21.6875C19.8125 22 20.1875 22.875 19.875 23.625C19.5 24.375 18.625 24.75 17.875 24.4375L17.0625 24.0625C17 24.3125 16.9375 24.5625 16.9375 24.8125C16.8125 25.875 16.4375 26.9375 15.875 27.8125L16.5 28.5C17.125 29.0625 17.125 30 16.5 30.5625C15.9375 31.1875 15 31.1875 14.4375 30.5625L13.75 29.9375C12.5625 30.6875 11.1875 31.0625 9.6875 31L9.4375 31.9375C9.1875 32.75 8.375 33.1875 7.5625 33C6.75 32.75 6.3125 31.9375 6.5625 31.125L6.75 30.25C5.5 29.5625 4.4375 28.5 3.75 27.25L2.875 27.5C2.0625 27.6875 1.25 27.25 1 26.4375C0.8125 25.625 1.25 24.8125 2.0625 24.5625L3 24.3125C2.9375 24 3 23.6875 3 23.375C3.125 22.3125 3.3125 21.25 3.625 20.1875L2.9375 19.9375C2.125 19.625 1.75 18.75 2.0625 18C2.375 17.1875 3.25 16.8125 4 17.125L4.625 17.375C5.0625 16.375 5.5625 15.4375 6.125 14.5625C6.1875 14.375 6.3125 14.125 6.5 13.9375L5.5625 13.1875C4.875 12.6875 4.8125 11.75 5.3125 11.0625C5.8125 10.4375 6.75 10.3125 7.4375 10.875L8.25 11.5C9.125 10.5 10.0625 9.5 11.1875 8.5625L10.75 7.875C10.25 7.1875 10.4375 6.25 11.125 5.75C11.8125 5.3125 12.75 5.5 13.25 6.1875L13.625 6.8125C14.75 6.0625 16 5.4375 17.375 4.8125L17.0625 4.125C16.75 3.375 17.125 2.5 17.875 2.125C18.625 1.8125 19.5 2.1875 19.875 2.9375L20.1875 3.8125C20.9375 3.5625 21.625 3.375 22.375 3.1875C23 3.0625 23.625 3 24.25 3.0625L24.5 2.125C24.75 1.3125 25.5625 0.875 26.375 1.0625C27.1875 1.3125 27.625 2.125 27.4375 2.9375ZM13.9375 24.3125C14.1875 22.75 14.875 21.3125 15.5 20.1875C16.875 17.9375 19.5625 15.1875 24.875 13.9375C27 13.4375 28.375 11.3125 27.875 9.125C27.375 7 25.25 5.625 23.0625 6.125C15.4375 7.9375 11.0625 12.125 8.6875 16.125C7.25 18.4375 6.25 21.125 6 23.6875C5.8125 25.875 7.4375 27.8125 9.625 28C11.8125 28.1875 13.6875 26.625 13.9375 24.4375C13.9375 24.4375 13.9375 24.375 13.9375 24.3125ZM13 21C13 22.125 12.0625 23 11 23C9.875 23 9 22.125 9 21C9 19.9375 9.875 19 11 19C12.0625 19 13 19.9375 13 21ZM16 15.5C15.125 15.5 14.5 14.875 14.5 14C14.5 13.1875 15.125 12.5 16 12.5C16.8125 12.5 17.5 13.1875 17.5 14C17.5 14.875 16.8125 15.5 16 15.5Z" fill="#000164"/>
</svg>
