<svg width="32" height="32" viewBox="0 0 32 32" fill="none" xmlns="http://www.w3.org/2000/svg">
<path d="M11.5 1.5V6C11.5 8.5 13.5 10.5 16 10.5H16.75C18.0625 7.875 20.8125 6 24 6C28.375 6 32 9.625 32 14V20C32 26.625 26.625 32 20 32C15.9375 32 13.375 30.25 11.4375 28.6875C11.125 28.4375 10.8125 28.25 10.5625 28C9.9375 27.5 9.4375 27.0625 8.875 26.75C8.1875 26.25 7.5625 26 7 26C4.75 26 3 27.8125 3 30V30.5C3 31.375 2.3125 32 1.5 32C0.625 32 0 31.375 0 30.5V30C0 25.875 3.3125 22.5 7.5 22.5H11.5C13.9375 22.5 16 20.5 16 18V14C16 13.875 16 13.6875 16 13.5C11.8125 13.5 8.5 10.1875 8.5 6V1.5C8.5 0.6875 9.125 0 10 0C10.8125 0 11.5 0.6875 11.5 1.5ZM12.625 25.8125C12.8125 26 13.0625 26.1875 13.3125 26.375C15.0625 27.75 17 29 20 29C24.1875 29 27.75 26.125 28.6875 22.1875C27.9375 22.375 27.1875 22.375 26.5 22.3125C25.25 22.125 24.125 21.625 23.1875 21.1875L23.125 21.125C22.125 20.6875 21.3125 20.375 20.5625 20.25C19.9375 20.1875 19.25 20.25 18.5 20.6875C17.5 23.25 15.125 25.1875 12.25 25.5C12.375 25.5625 12.5 25.6875 12.625 25.8125ZM29 18.875V14C29 11.25 26.75 9 24 9C21.1875 9 19 11.25 19 14V17.3125C19.625 17.1875 20.3125 17.1875 20.9375 17.25C22.1875 17.4375 23.3125 17.9375 24.25 18.375H24.3125C25.375 18.875 26.125 19.1875 26.875 19.3125C27.5625 19.375 28.1875 19.3125 29 18.875Z" fill="#000164"/>
</svg>
