<svg width="32" height="29" viewBox="0 0 32 29" fill="none" xmlns="http://www.w3.org/2000/svg">
<path d="M14.0625 27.3125L13.9375 27.125L4.125 18H8.5L16 24.9375L23.4375 18H27.8125L18 27.125L17.875 27.3125C17.375 27.75 16.6875 28.0625 16 28.0625C15.25 28.0625 14.625 27.75 14.0625 27.3125ZM0 10.0625V9.875C0 5.5 3.125 1.6875 7.4375 0.875C9.875 0.375 12.375 0.9375 14.4375 2.375C15 2.75 15.5 3.25 16 3.75C16.25 3.5 16.5 3.1875 16.8125 2.9375C17.0625 2.75 17.3125 2.5625 17.5625 2.375C19.5625 0.9375 22.0625 0.375 24.5 0.875C28.875 1.6875 32 5.5 32 9.875V10.0625C32 12.25 31.1875 14.375 29.875 16H28.5H25.5625H23.1875C22.0625 16 21 15.375 20.5 14.375L20 13.25L16.875 19.5C16.6875 19.8125 16.3125 20.0625 15.9375 20C15.5625 20 15.1875 19.8125 15.0625 19.4375L11.5 11.5625L10.375 14.1875C9.9375 15.3125 8.875 16 7.625 16H6.375H3.5H2.0625C0.75 14.375 0 12.25 0 10.0625ZM27.625 14C28.5 12.875 28.9375 11.5 28.9375 10.0625V9.875C28.9375 6.875 26.875 4.375 23.9375 3.8125C21.8125 3.375 19.625 4.125 18.1875 5.75L17.0625 7C17.0625 7.0625 17.0625 7.0625 17 7.0625C16.75 7.375 16.375 7.5 15.9375 7.5C15.5625 7.5 15.1875 7.375 14.9375 7.0625C14.875 7.0625 14.875 7.0625 14.875 7L13.75 5.75C12.3125 4.125 10.125 3.4375 8 3.8125C5.0625 4.375 3 6.9375 3 9.875V10.0625C3 11.5 3.4375 12.9375 4.3125 14H7.625C8.0625 14 8.4375 13.8125 8.5625 13.4375L10.5625 8.625C10.6875 8.25 11.0625 8.0625 11.4375 8C11.875 8 12.25 8.25 12.375 8.625L16 16.6875L19.0625 10.5625C19.25 10.25 19.5625 10.0625 20 10.0625C20.375 10.0625 20.6875 10.25 20.875 10.5625L22.3125 13.5C22.5 13.8125 22.8125 14 23.1875 14H27.625Z" fill="#000164"/>
</svg>
