<svg width="21" height="33" viewBox="0 0 21 33" fill="none" xmlns="http://www.w3.org/2000/svg">
<path d="M14 4C14 5.125 13.375 6.0625 12.5 6.625C11.5625 7.1875 10.375 7.1875 9.5 6.625C8.5625 6.0625 8 5.125 8 4C8 2.9375 8.5625 2 9.5 1.4375C10.375 0.875 11.5625 0.875 12.5 1.4375C13.375 2 14 2.9375 14 4ZM5 23V18.0625L3.8125 20.25C3.375 20.9375 2.5 21.25 1.75 20.875C1.0625 20.4375 0.75 19.5625 1.125 18.8125L4.8125 11.9375C5.8125 10.125 7.625 9 9.6875 9H10H10.8125H11C11.0625 9 11.0625 9 11.125 9.0625C13.4375 9.1875 15.3125 10.875 15.75 13.125L16.125 15.125C18.875 15.6875 21 18.125 21 21V23C21 24.125 20.0625 25 19 25H18H15V31.5C15 32.375 14.3125 33 13.5 33C12.625 33 12 32.375 12 31.5V25H11H10V31.5C10 32.375 9.3125 33 8.5 33C7.625 33 7 32.375 7 31.5V25C5.875 25 5 24.125 5 23ZM10 12C8.875 12 8 12.9375 8 14V22H11H18V21C18 19.5625 16.9375 18.375 15.5625 18.0625C14.3125 17.875 13.375 16.875 13.1875 15.6875L12.8125 13.6875C12.625 12.6875 11.8125 12 10.8125 12H10Z" fill="#000164"/>
</svg>
