<svg width="34" height="34" viewBox="0 0 34 34" fill="none" xmlns="http://www.w3.org/2000/svg">
<path d="M26.4375 1.4375C27 0.875 27.9375 0.875 28.5625 1.4375L30.5625 3.4375L32.5 5.4375C33.125 6.0625 33.125 7 32.5 7.5625C31.9375 8.1875 31 8.1875 30.4375 7.5625L29.5 6.625L27.125 9L30.5625 12.4375C31.125 13.0625 31.125 14 30.5625 14.5625C29.9375 15.1875 29 15.1875 28.4375 14.5625L23.9375 10.0625L19.4375 5.5625C18.8125 5 18.8125 4.0625 19.4375 3.4375C20 2.875 20.9375 2.875 21.5625 3.4375L25 6.9375L27.375 4.5L26.4375 3.5625C25.8125 3 25.8125 2.0625 26.4375 1.4375ZM17.9375 6.9375L18 7L20.0625 9.0625L19.25 9.875L20.6875 11.3125C21.0625 11.6875 21.0625 12.375 20.6875 12.75C20.3125 13.125 19.625 13.125 19.25 12.75L17.8125 11.3125L15.25 13.875L16.6875 15.3125C17.0625 15.6875 17.0625 16.375 16.6875 16.75C16.3125 17.125 15.625 17.125 15.25 16.75L13.8125 15.3125L11.25 17.875L12.6875 19.3125C13.0625 19.6875 13.0625 20.375 12.6875 20.75C12.3125 21.125 11.625 21.125 11.25 20.75L9.8125 19.3125L8.125 21C8 21.125 8 21.25 8 21.375V26H12.625C12.75 26 12.875 25.9375 13 25.875L24.9375 13.9375L27 16L27.0625 16.0625L15.125 28C14.4375 28.625 13.5625 29 12.625 29H7.0625L3.5 32.5625C2.9375 33.1875 2 33.1875 1.4375 32.5625C0.8125 32 0.8125 31.0625 1.4375 30.4375L5 26.9375V21.375C5 20.4375 5.3125 19.5625 6 18.875L17.9375 6.9375Z" fill="#000164"/>
</svg>
