<svg width="32" height="32" viewBox="0 0 32 32" fill="none" xmlns="http://www.w3.org/2000/svg">
<path d="M3 14C3 16.6875 3.875 19.0625 5.4375 21C6.3125 22 7 23.375 7 24.9375V30.5C7 31.375 6.3125 32 5.5 32C4.625 32 4 31.375 4 30.5V24.9375C4 24.25 3.6875 23.5625 3.125 22.875C1.125 20.4375 0 17.375 0 14C0 6.3125 6.25 0 14 0H15.5C20.375 0 24.9375 3 26.9375 7.3125C27.1875 7.875 27.4375 8.4375 27.6875 9L27.75 9.1875C28 9.8125 28.3125 10.4375 28.5625 11C29.125 12.1875 29.75 13.1875 30.5625 13.9375L30.8125 14.25C31.5625 15 32 16 32 17.0625C32 19.25 30.1875 21 28 21V24C28 26.25 26.1875 28 24 28H20V30.5C20 31.375 19.3125 32 18.5 32C17.625 32 17 31.375 17 30.5V26.5C17 25.6875 17.625 25 18.5 25H24C24.5 25 25 24.5625 25 24V19.5C25 18.6875 25.625 18 26.5 18H28C28.5625 18 29 17.5625 29 17.0625C29 16.8125 28.875 16.5625 28.6875 16.375L28.4375 16.0625C27.25 14.9375 26.5 13.625 25.875 12.3125C25.5625 11.6875 25.25 11 25 10.375L24.9375 10.1875C24.6875 9.625 24.4375 9.0625 24.1875 8.5625C22.6875 5.3125 19.25 3 15.5 3H14C7.875 3 3 7.9375 3 14ZM19.5 12H16.75C16.875 12.3125 17 12.6875 17 13C17 14.4375 15.875 15.5 14.5 15.5C14.3125 15.5 14.125 15.5 14 15.5V18.5C14 19.375 13.3125 20 12.5 20C11.625 20 11 19.375 11 18.5V15.3125C10.6875 15.4375 10.3125 15.5 10 15.5C8.5625 15.5 7.5 14.4375 7.5 13C7.5 12.9375 7.5 12.875 7.5 12.8125C6.5625 12.4375 6 11.5625 6 10.5C6 9.125 7.0625 8 8.5 8C8.625 6.875 9.5625 6 10.75 6C11.125 6 11.5 6.125 11.8125 6.3125C12.25 5.5625 13.0625 5 14 5C14.875 5 15.75 5.5625 16.125 6.3125C16.4375 6.125 16.8125 6 17.25 6C18 6 18.6875 6.4375 19.125 7.0625C19.25 7.0625 19.375 7 19.5 7C20.875 7 22 8.125 22 9.5C22 10.9375 20.875 12 19.5 12Z" fill="#000164"/>
</svg>
