<svg width="41" height="33" viewBox="0 0 41 33" fill="none" xmlns="http://www.w3.org/2000/svg">
<path d="M22.5 1.5V9.4375C22 9.1875 21.5 9 21 9C20.4375 9 19.9375 9.1875 19.5 9.4375V1.5C19.5 0.6875 20.125 0 21 0C21.8125 0 22.5 0.6875 22.5 1.5ZM17 10.375V11.875C16.0625 11.25 14.9375 11.1875 14 11.6875V10.375C14 9.625 13.375 9 12.625 9C12.1875 9 11.8125 9.25 11.625 9.5625C10.6875 10.875 9 13.4375 7.375 16.5C5.8125 19.5625 4.375 23 4 26.0625V26.4375C4 27.875 5.125 29 6.5625 29C6.75 29 6.9375 29 7.125 28.9375L11.6875 27.8125C12.125 27.6875 12.4375 27.5625 12.75 27.3125C12.875 27.5 13 27.625 13.1875 27.8125C13.875 28.5 14.75 28.75 15.625 28.6875C14.8125 29.6875 13.75 30.375 12.4375 30.75L7.875 31.875C7.4375 32 7 32.0625 6.5 32.0625C3.4375 32.0625 0.9375 29.5625 0.9375 26.5V26.0625C0.9375 25.9375 1 25.875 1 25.8125C1.4375 22.1875 3.0625 18.3125 4.6875 15.125C6.375 11.9375 8.1875 9.1875 9.125 7.8125C9.9375 6.6875 11.25 6.0625 12.625 6.0625C15.0625 6 17 7.9375 17 10.375ZM34.0625 31.875L29.5 30.75C28.1875 30.375 27.125 29.625 26.3125 28.6875C27.1875 28.75 28.0625 28.5 28.75 27.8125L27.3125 26.375L28.75 27.8125C28.875 27.625 29.0625 27.5 29.1875 27.3125C29.5 27.5 29.8125 27.6875 30.25 27.8125L34.8125 28.9375C35 29 35.1875 29 35.375 29C36.8125 29 37.9375 27.875 37.9375 26.4375V26.0625C37.5625 23 36.125 19.5625 34.5625 16.5C33 13.4375 31.25 10.875 30.3125 9.5625C30.125 9.25 29.75 9 29.3125 9C28.5625 9 28 9.625 28 10.375V11.6875C27 11.1875 25.875 11.25 25 11.875V10.375C25 7.9375 26.9375 6 29.3125 6C30.6875 6 32 6.6875 32.8125 7.8125C33.75 9.1875 35.5625 11.9375 37.25 15.125C38.875 18.3125 40.5 22.1875 40.9375 25.75C40.9375 25.875 40.9375 25.9375 40.9375 26V26.4375C40.9375 29.5625 38.5 32 35.375 32C34.9375 32 34.5 32 34.0625 31.875ZM21 11C21.5 11 22 11.5 22 12C22 14.0625 24.4375 15.125 25.9375 13.6875C26.3125 13.25 26.9375 13.25 27.3125 13.6875C27.75 14.0625 27.75 14.6875 27.3125 15.0625C25.875 16.5625 26.9375 19 29 19C29.5 19 30 19.5 30 20C30 20.5625 29.5 21 29 21C26.9375 21 25.875 23.5 27.3125 25C27.75 25.375 27.75 26 27.3125 26.375C26.9375 26.75 26.3125 26.75 25.9375 26.375C24.4375 24.9375 22 25.9375 22 28C22 28.5625 21.5 29 21 29C20.4375 29 20 28.5625 20 28C20 25.9375 17.5 24.9375 16 26.375C15.625 26.75 15 26.75 14.625 26.375C14.25 26 14.25 25.375 14.625 25C16.0625 23.5 15.0625 21 13 21C12.4375 21 12 20.5625 12 20C12 19.5 12.4375 19 13 19C15.0625 19 16.0625 16.5625 14.625 15.0625C14.25 14.6875 14.25 14.0625 14.625 13.6875C15 13.25 15.625 13.25 16 13.6875C17.5 15.125 20 14.0625 20 12C20 11.5 20.4375 11 21 11ZM19.5 20C20.3125 20 21 19.375 21 18.5C21 17.6875 20.3125 17 19.5 17C18.625 17 18 17.6875 18 18.5C18 19.375 18.625 20 19.5 20ZM24 22C24 21.5 23.5 21 23 21C22.4375 21 22 21.5 22 22C22 22.5625 22.4375 23 23 23C23.5 23 24 22.5625 24 22Z" fill="#000164"/>
</svg>
