<svg width="40" height="32" viewBox="0 0 40 32" fill="none" xmlns="http://www.w3.org/2000/svg">
<path d="M21.5 1.5V4H24.125C26.125 4 28 5.125 28.875 7C29.75 8.8125 31.0625 11.625 32.0625 14.75C33.125 17.875 34 21.375 34 24.5V25.25C34 27.875 31.8125 30.0625 29.1875 30.0625C28.5 30.0625 27.8125 29.875 27.1875 29.5625L22.75 27.5C22.3125 27.3125 21.875 27.125 21.5 27.0625V30.5C21.5 31.375 20.8125 32 20 32C19.125 32 18.5 31.375 18.5 30.5V27.0625C18.0625 27.125 17.625 27.3125 17.1875 27.5L12.75 29.5625C12.125 29.875 11.4375 30 10.75 30C8.125 30 6 27.875 6 25.25V24.5C6 21.375 6.8125 17.875 7.875 14.75C8.9375 11.625 10.1875 8.8125 11.0625 7C11.9375 5.125 13.8125 4 15.875 4H18.5V1.5C18.5 0.6875 19.125 0 20 0C20.8125 0 21.5 0.6875 21.5 1.5ZM18.5 7H15.875C14.9375 7 14.125 7.5 13.75 8.3125C13.25 9.3125 12.6875 10.625 12.0625 12.0625L18.5 10.8125V7ZM10.8125 15.375C10.8125 15.5 10.75 15.625 10.6875 15.6875C10.25 17.125 9.8125 18.5625 9.5 20L18.5 17.375V13.875L10.8125 15.375ZM9 23.3125C9 23.6875 9 24.125 9 24.5V25.25C9 26.25 9.75 27.0625 10.75 27.0625C11 27.0625 11.25 27 11.5 26.875L15.9375 24.75C16.75 24.375 17.625 24.125 18.5 24V20.5L9 23.3125ZM21.5 24C22.3125 24.125 23.1875 24.375 24 24.75L28.4375 26.875C28.6875 27 28.9375 27 29.1875 27C30.1875 27 31 26.25 31 25.25V24.5C31 24.125 30.9375 23.6875 30.9375 23.3125L21.5 20.5V24ZM30.4375 20C30.125 18.5625 29.6875 17.125 29.25 15.6875C29.1875 15.625 29.1875 15.5 29.125 15.375L21.5 13.875V17.375L30.4375 20ZM27.875 12.0625C27.25 10.625 26.6875 9.3125 26.1875 8.3125C25.8125 7.5 25 7 24.125 7H21.5V10.8125L27.875 12.0625ZM0 8C0 5.8125 1.75 4 4 4C6.1875 4 8 5.8125 8 8V8.375C8 9.9375 7.1875 11.375 5.875 12.125L3.5 13.5625C3.1875 13.75 3 14.125 3 14.5V30.5C3 31.375 2.3125 32 1.5 32C0.625 32 0 31.375 0 30.5V14.5V8ZM3 10.375L4.3125 9.5625C4.75 9.3125 5 8.875 5 8.375V8C5 7.5 4.5 7 4 7C3.4375 7 3 7.5 3 8V10.375ZM36 4C38.1875 4 40 5.8125 40 8V14.5V30.5C40 31.375 39.3125 32 38.5 32C37.625 32 37 31.375 37 30.5V14.5625C37 14.125 36.75 13.75 36.4375 13.5625L34.125 12.125C32.75 11.375 32 9.9375 32 8.375V8C32 5.8125 33.75 4 36 4ZM35.625 9.5625L37 10.375V8C37 7.5 36.5 7 36 7C35.4375 7 35 7.5 35 8V8.375C35 8.875 35.25 9.3125 35.625 9.5625Z" fill="#000164"/>
</svg>
